<svg id="Layer_1" data-name="Layer 1" xmlns="http://www.w3.org/2000/svg" viewBox="0 0 91.6 103.53">
	<defs>
		<style>
			.cls-1{fill:#4697d3;}.cls-1,.cls-2,.cls-3,.cls-4{stroke:#fff;stroke-width:5px;}.cls-1,.cls-2,.cls-4{stroke-miterlimit:10;}.cls-2{fill:#132035;}.cls-3,.cls-4{fill:none;stroke-linecap:round;}.cls-3{stroke-linejoin:round;}</style>
	</defs>
	<path class="cls-1"
		d="M38.51,51.58V96.06a4.77,4.77,0,0,0,2.39,4.14l38.53,22.24a4.73,4.73,0,0,0,4.77,0l38.53-22.24a4.77,4.77,0,0,0,2.39-4.14V51.58a4.78,4.78,0,0,0-2.39-4.14L84.2,25.2a4.78,4.78,0,0,0-4.77,0L40.9,47.44A4.78,4.78,0,0,0,38.51,51.58Z"
		transform="translate(-36.01 -22.06)" />
	<circle class="cls-2" cx="45.8" cy="51.76" r="28.23" />
	<line class="cls-3" x1="45.8" y1="101.03" x2="45.8" y2="91.38" />
	<line class="cls-4" x1="88.65" y1="27.48" x2="79.49" y2="32.71" />
	<line class="cls-4" x1="11.62" y1="32.46" x2="3" y2="27.4" />
	<path class="cls-3" d="M81.43,74.37l15.28-8.59" transform="translate(-36.01 -22.06)" />
	<path class="cls-3" d="M81.43,74.37V91.55" transform="translate(-36.01 -22.06)" />
	<path class="cls-3" d="M81.43,74.37,66.16,65.78" transform="translate(-36.01 -22.06)" />
</svg>