<svg id="Layer_1" data-name="Layer 1" xmlns="http://www.w3.org/2000/svg" viewBox="0 0 96.66 108.48">
    <defs>
        <style>
            .cls-1{fill:#4697d3;}.cls-1,.cls-2,.cls-3,.cls-4,.cls-5{stroke:#fff;}.cls-1,.cls-2,.cls-4{stroke-miterlimit:10;}.cls-1,.cls-2,.cls-3,.cls-4{stroke-width:2.75px;}.cls-2{fill:#132035;}.cls-3,.cls-4{fill:#fff;}.cls-3,.cls-4,.cls-5{stroke-linecap:round;}.cls-3,.cls-5{stroke-linejoin:round;}.cls-5{fill:none;stroke-width:2.75px;}</style>
    </defs>
    <path class="cls-1"
        d="M40,50.66V95.15a4.77,4.77,0,0,0,2.39,4.13L81,121.53a4.8,4.8,0,0,0,4.78,0l38.53-22.25a4.79,4.79,0,0,0,2.39-4.13V50.66a4.79,4.79,0,0,0-2.39-4.13L85.73,24.28a4.8,4.8,0,0,0-4.78,0L42.43,46.53A4.77,4.77,0,0,0,40,50.66Z"
        transform="translate(-34.76 -22.27)" />
    <circle class="cls-2" cx="48.58" cy="50.64" r="28.23" />
    <line class="cls-3" x1="48.58" y1="107.11" x2="48.58" y2="90.25" />
    <line class="cls-4" x1="95.28" y1="24.14" x2="82.26" y2="31.58" />
    <line class="cls-4" x1="1.38" y1="23.69" x2="14.4" y2="31.33" />
    <path class="cls-5" d="M83,73.45l15.28-8.59" transform="translate(-34.76 -22.27)" />
    <path class="cls-5" d="M83,73.45V90.64" transform="translate(-34.76 -22.27)" />
    <path class="cls-5" d="M83,73.45,67.69,64.86" transform="translate(-34.76 -22.27)" />
</svg>