<svg id="illustration" xmlns="http://www.w3.org/2000/svg" xmlns:xlink="http://www.w3.org/1999/xlink" viewBox="0 0 724.5 502.35"><defs><style>.cls-1,.cls-14,.cls-15,.cls-16,.cls-18,.cls-19,.cls-22,.cls-23,.cls-4{fill:none;}.cls-2{fill:#eaf9f3;}.cls-3{clip-path:url(#clip-path);}.cls-4{stroke:#b8d8c7;}.cls-14,.cls-15,.cls-16,.cls-18,.cls-19,.cls-22,.cls-23,.cls-4{stroke-linecap:round;stroke-linejoin:round;}.cls-14,.cls-15,.cls-18,.cls-19,.cls-22,.cls-4{stroke-width:1.8px;}.cls-5{fill:#b8d8c7;}.cls-6{fill:#22272e;}.cls-7{fill:#63737a;}.cls-8{fill:#b0d7c0;}.cls-9{fill:#00aeef;}.cls-10{fill:#f4c2c9;}.cls-11{fill:#ffe779;}.cls-12{fill:#6dafa7;}.cls-13{fill:#fff;}.cls-14{stroke:#fff;}.cls-15,.cls-16{stroke:#63737a;}.cls-16{stroke-width:1.8px;}.cls-17{fill:#231f20;}.cls-18,.cls-23{stroke:#22272e;}.cls-19{stroke:#e26e85;}.cls-20{fill:#e26e85;}.cls-21{clip-path:url(#clip-path-2);}.cls-22{stroke:#0a0a09;}.cls-23{stroke-width:1.8px;}</style><clipPath id="clip-path" transform="translate(-165.9 -149.55)"><path class="cls-1" d="M766.3,546.8l-520-14.9a48.07,48.07,0,0,1-46.5-43.3l-25.1-248a48.18,48.18,0,0,1,47.2-53l578.8-8a48.21,48.21,0,0,1,48.5,54.1L815.5,504.6A48.27,48.27,0,0,1,766.3,546.8Z"/></clipPath><clipPath id="clip-path-2" transform="translate(-165.9 -149.55)"><path class="cls-1" d="M322.9,252.6c2.2-6.5,10.6-10.4,17.4-9.8,7,.6,20.4.8,33.3,4.8,22,6.8,27.3,10.8,28.6,12,7.3,7,6.6,17.4,2.4,46.1-2.7,18.9-5,23.7-4.4,33s2.3,25.8,3.4,29.2-1.7,9.3-4.1,11.4-21.8,6.5-39.8,6.1-46.3-5.3-50.8-8.3-7.7-8.2-6.7-12.7A200.52,200.52,0,0,1,307,344c2.8-9.5,3-21.9,7.4-41.8C317.8,287.5,318.3,266.2,322.9,252.6Z"/></clipPath></defs><path class="cls-2" d="M766.3,546.8l-520-14.9a48.07,48.07,0,0,1-46.5-43.3l-25.1-248a48.18,48.18,0,0,1,47.2-53l578.8-8a48.21,48.21,0,0,1,48.5,54.1L815.5,504.6A48.27,48.27,0,0,1,766.3,546.8Z" transform="translate(-165.9 -149.55)"/><g class="cls-3"><path class="cls-4" d="M610.6,558.6l1.8,40.5a15,15,0,0,1-15,15H181.8a15,15,0,0,1-15-15V363.4a15,15,0,0,1,15-15H597.3a15,15,0,0,1,15,15V522.8" transform="translate(-165.9 -149.55)"/><path class="cls-4" d="M703.7,523.8V291.7a15,15,0,0,1,15-15h124a15,15,0,0,1,15,15V636a15,15,0,0,1-15,15h-124a15,15,0,0,1-15-15V561.1" transform="translate(-165.9 -149.55)"/><path class="cls-4" d="M259.9,278.1H170v-8.9h89.9a1.79,1.79,0,0,1,1.8,1.8v5.2A1.76,1.76,0,0,1,259.9,278.1Z" transform="translate(-165.9 -149.55)"/><path class="cls-4" d="M246.2,348.4H225.9a4.32,4.32,0,0,1-4.3-3.8L220,330.2a4.33,4.33,0,0,1,4.3-4.8h23.5a4.34,4.34,0,0,1,4.3,4.8l-1.6,14.4A4.25,4.25,0,0,1,246.2,348.4Z" transform="translate(-165.9 -149.55)"/><path class="cls-5" d="M233.7,325.5s-8-.8-9.6-11.6c0,0,7.2,2.1,9.5,7.2,0,0,1-11.4,6.4-12.5,0,0,2.4,8.5-1.4,12.7,0,0,2.9-4.8,10.3-4.7a13.6,13.6,0,0,1-9.2,8.8" transform="translate(-165.9 -149.55)"/><path class="cls-4" d="M792.3,276.7H772a4.32,4.32,0,0,1-4.3-3.8l-1.6-14.4a4.33,4.33,0,0,1,4.3-4.8h23.5a4.34,4.34,0,0,1,4.3,4.8l-1.6,14.4A4.32,4.32,0,0,1,792.3,276.7Z" transform="translate(-165.9 -149.55)"/><path class="cls-5" d="M779.7,253.8s-8-.8-9.6-11.6c0,0,7.2,2.1,9.5,7.2,0,0,1-11.4,6.4-12.5,0,0,2.4,8.5-1.4,12.7,0,0,2.9-4.8,10.3-4.7a13.6,13.6,0,0,1-9.2,8.8" transform="translate(-165.9 -149.55)"/><path class="cls-4" d="M594.2,398.1H504a4.23,4.23,0,0,1-4.2-4.2V366.5a4.23,4.23,0,0,1,4.2-4.2h90.2a4.23,4.23,0,0,1,4.2,4.2v27.4A4.23,4.23,0,0,1,594.2,398.1Z" transform="translate(-165.9 -149.55)"/><path class="cls-5" d="M559.4,372H538.6a1.54,1.54,0,0,1-1.5-1.5h0a1.54,1.54,0,0,1,1.5-1.5h20.8a1.54,1.54,0,0,1,1.5,1.5h0A1.47,1.47,0,0,1,559.4,372Z" transform="translate(-165.9 -149.55)"/><path class="cls-4" d="M594.2,444H504a4.23,4.23,0,0,1-4.2-4.2V412.4a4.23,4.23,0,0,1,4.2-4.2h90.2a4.23,4.23,0,0,1,4.2,4.2v27.4A4.23,4.23,0,0,1,594.2,444Z" transform="translate(-165.9 -149.55)"/><path class="cls-5" d="M559.4,417.8H538.6a1.54,1.54,0,0,1-1.5-1.5h0a1.54,1.54,0,0,1,1.5-1.5h20.8a1.54,1.54,0,0,1,1.5,1.5h0A1.47,1.47,0,0,1,559.4,417.8Z" transform="translate(-165.9 -149.55)"/><path class="cls-4" d="M479.2,398.1H389a4.23,4.23,0,0,1-4.2-4.2V366.5a4.23,4.23,0,0,1,4.2-4.2h90.2a4.23,4.23,0,0,1,4.2,4.2v27.4A4.23,4.23,0,0,1,479.2,398.1Z" transform="translate(-165.9 -149.55)"/><path class="cls-5" d="M444.5,372H423.7a1.54,1.54,0,0,1-1.5-1.5h0a1.54,1.54,0,0,1,1.5-1.5h20.8a1.54,1.54,0,0,1,1.5,1.5h0A1.54,1.54,0,0,1,444.5,372Z" transform="translate(-165.9 -149.55)"/><path class="cls-4" d="M479.2,444H389a4.23,4.23,0,0,1-4.2-4.2V412.4a4.23,4.23,0,0,1,4.2-4.2h90.2a4.23,4.23,0,0,1,4.2,4.2v27.4A4.23,4.23,0,0,1,479.2,444Z" transform="translate(-165.9 -149.55)"/><path class="cls-5" d="M444.5,417.8H423.7a1.54,1.54,0,0,1-1.5-1.5h0a1.54,1.54,0,0,1,1.5-1.5h20.8a1.54,1.54,0,0,1,1.5,1.5h0A1.54,1.54,0,0,1,444.5,417.8Z" transform="translate(-165.9 -149.55)"/><path class="cls-4" d="M594.2,488.8H504a4.23,4.23,0,0,1-4.2-4.2V457.2A4.23,4.23,0,0,1,504,453h90.2a4.23,4.23,0,0,1,4.2,4.2v27.4A4.23,4.23,0,0,1,594.2,488.8Z" transform="translate(-165.9 -149.55)"/><path class="cls-5" d="M559.4,462.7H538.6a1.54,1.54,0,0,1-1.5-1.5h0a1.54,1.54,0,0,1,1.5-1.5h20.8a1.54,1.54,0,0,1,1.5,1.5h0A1.47,1.47,0,0,1,559.4,462.7Z" transform="translate(-165.9 -149.55)"/><path class="cls-4" d="M479.2,488.8H389a4.23,4.23,0,0,1-4.2-4.2V457.2A4.23,4.23,0,0,1,389,453h90.2a4.23,4.23,0,0,1,4.2,4.2v27.4A4.23,4.23,0,0,1,479.2,488.8Z" transform="translate(-165.9 -149.55)"/><path class="cls-5" d="M444.5,462.7H423.7a1.54,1.54,0,0,1-1.5-1.5h0a1.54,1.54,0,0,1,1.5-1.5h20.8a1.54,1.54,0,0,1,1.5,1.5h0A1.54,1.54,0,0,1,444.5,462.7Z" transform="translate(-165.9 -149.55)"/><path class="cls-4" d="M884.9,381.5H725a4.65,4.65,0,0,1-4.6-4.6V297.2a4.65,4.65,0,0,1,4.6-4.6H884.9a4.65,4.65,0,0,1,4.6,4.6v79.7A4.53,4.53,0,0,1,884.9,381.5Z" transform="translate(-165.9 -149.55)"/><path class="cls-4" d="M884.9,480.5H725a4.65,4.65,0,0,1-4.6-4.6V396.2a4.65,4.65,0,0,1,4.6-4.6H884.9a4.65,4.65,0,0,1,4.6,4.6v79.7A4.59,4.59,0,0,1,884.9,480.5Z" transform="translate(-165.9 -149.55)"/><rect class="cls-4" x="585.2" y="181.65" width="9.9" height="50.3"/><rect class="cls-4" x="595" y="195.45" width="10.3" height="36.6"/><rect class="cls-4" x="47.9" y="69.35" width="9.9" height="50.3"/><rect class="cls-4" x="57.7" y="83.05" width="10.3" height="36.6"/><rect class="cls-4" x="27.7" y="90.25" width="9.9" height="29.4"/><rect class="cls-4" x="37.6" y="60.75" width="10.3" height="58.8"/><path class="cls-5" d="M754.8,436.8l1.1-14.9a1.65,1.65,0,0,0-1.7-1.8h-8.5a1.71,1.71,0,0,0-1.7,1.8l1.1,14.9s-9,5.8-8.9,10.6c.1,3.7,2.3,21.4,3.3,29.2a4.32,4.32,0,0,0,4.3,3.8h12.4a4.32,4.32,0,0,0,4.3-3.8c1-7.8,3.2-25.5,3.3-29.2C763.8,442.6,754.8,436.8,754.8,436.8Z" transform="translate(-165.9 -149.55)"/><path class="cls-5" d="M803,337.9l1.1-14.9a1.65,1.65,0,0,0-1.7-1.8h-8.6a1.71,1.71,0,0,0-1.7,1.8l1.1,14.9s-9,5.8-8.9,10.6c.1,3.7,2.3,21.4,3.3,29.2a4.32,4.32,0,0,0,4.3,3.8h12.4a4.32,4.32,0,0,0,4.3-3.8c1-7.8,3.2-25.5,3.3-29.2C812,343.7,803,337.9,803,337.9Z" transform="translate(-165.9 -149.55)"/><line class="cls-4" x1="14.5" y1="368.55" x2="717.5" y2="376.25"/></g><path class="cls-6" d="M732.8,340.9,694,338.5a4.83,4.83,0,0,1-4.5-5.2l5.9-79.6a5.58,5.58,0,0,1,5.2-5.1l39.7-2.4a4.86,4.86,0,0,1,5.1,5.2l-6.6,84.4A5.71,5.71,0,0,1,732.8,340.9Z" transform="translate(-165.9 -149.55)"/><path class="cls-6" d="M730.1,340.9l-38.8-2.4a4.83,4.83,0,0,1-4.5-5.2l5.9-79.6a5.58,5.58,0,0,1,5.2-5.1l39.7-2.4a4.86,4.86,0,0,1,5.1,5.2l-6.6,84.4A5.71,5.71,0,0,1,730.1,340.9Z" transform="translate(-165.9 -149.55)"/><path class="cls-7" d="M718.2,255.5l-7.4.4a.94.94,0,0,1-1-1h0a1.11,1.11,0,0,1,1.1-1.1l7.4-.4a.94.94,0,0,1,1,1h0A1.11,1.11,0,0,1,718.2,255.5Z" transform="translate(-165.9 -149.55)"/><path class="cls-7" d="M722.5,255.3h-.2a.94.94,0,0,1-1-1h0a1.38,1.38,0,0,1,1.2-1.2h.2a.94.94,0,0,1,1,1h0A1.38,1.38,0,0,1,722.5,255.3Z" transform="translate(-165.9 -149.55)"/><path class="cls-7" d="M710.9,268.8l-9.9.3a1.69,1.69,0,0,1-1.7-1.9h0a2.24,2.24,0,0,1,2-2l9.9-.4a1.69,1.69,0,0,1,1.7,1.9h0A2.16,2.16,0,0,1,710.9,268.8Z" transform="translate(-165.9 -149.55)"/><path class="cls-7" d="M708.3,303.2l-9.8-.1a1.8,1.8,0,0,1-1.7-1.9h0a2.14,2.14,0,0,1,2-1.9l9.8.1a1.74,1.74,0,0,1,1.7,1.9h0A2.05,2.05,0,0,1,708.3,303.2Z" transform="translate(-165.9 -149.55)"/><path class="cls-7" d="M706.2,331l-9.8-.5a1.83,1.83,0,0,1-1.7-2h0a1.88,1.88,0,0,1,1.9-1.8l9.8.4a1.77,1.77,0,0,1,1.7,2h0A1.9,1.9,0,0,1,706.2,331Z" transform="translate(-165.9 -149.55)"/><path class="cls-8" d="M729,290.9l-29.2.1a2.1,2.1,0,0,1-2.1-2.3l.9-12.7a2.05,2.05,0,0,1,2-1.9l29.3-.8a2.1,2.1,0,0,1,2.1,2.3l-1,13.3A2,2,0,0,1,729,290.9Z" transform="translate(-165.9 -149.55)"/><path class="cls-9" d="M707.6,320.3l-10-.4a2.08,2.08,0,0,1-2-2.3l.6-7.6a2,2,0,0,1,2.1-1.9l10.1.2a2.22,2.22,0,0,1,2.1,2.3l-.6,7.8A2.28,2.28,0,0,1,707.6,320.3Z" transform="translate(-165.9 -149.55)"/><path class="cls-10" d="M726.6,320.9l-10.7-.4a2.08,2.08,0,0,1-2-2.3l.6-7.9a2,2,0,0,1,2.1-1.9l10.8.2a2.22,2.22,0,0,1,2.1,2.3l-.6,8.1A2.26,2.26,0,0,1,726.6,320.9Z" transform="translate(-165.9 -149.55)"/><path class="cls-6" d="M487.2,217.8l-32.5,1.5a4,4,0,0,1-4.1-4.7l5.4-54a6.38,6.38,0,0,1,5.2-5.6l33.1-4.3c2.9-.4,4.9,1.7,4.6,4.6l-6.1,57.1A6.18,6.18,0,0,1,487.2,217.8Z" transform="translate(-165.9 -149.55)"/><path class="cls-6" d="M484.8,216.7l-32.5,1.5a4,4,0,0,1-4.1-4.7l5.4-54a6.38,6.38,0,0,1,5.2-5.6l33.1-4.3c2.9-.4,4.9,1.7,4.6,4.6l-6.1,57.1A6.08,6.08,0,0,1,484.8,216.7Z" transform="translate(-165.9 -149.55)"/><path class="cls-10" d="M486.3,167.8,461,170.5a1.27,1.27,0,0,1-1.4-1.4l.6-6.2a1.18,1.18,0,0,1,1.1-1.1l25.4-3a1.27,1.27,0,0,1,1.4,1.4l-.7,6.5A1.11,1.11,0,0,1,486.3,167.8Z" transform="translate(-165.9 -149.55)"/><path class="cls-8" d="M462.8,185l-3.3.3a1.27,1.27,0,0,1-1.4-1.4l.4-3.6a1.18,1.18,0,0,1,1.1-1.1l3.3-.3a1.27,1.27,0,0,1,1.4,1.4l-.4,3.6A1.18,1.18,0,0,1,462.8,185Z" transform="translate(-165.9 -149.55)"/><path class="cls-8" d="M484.7,183.1l-3.6.3a1.27,1.27,0,0,1-1.4-1.4l.4-3.8a1.18,1.18,0,0,1,1.1-1.1l3.6-.4a1.27,1.27,0,0,1,1.4,1.4l-.4,3.8A1.28,1.28,0,0,1,484.7,183.1Z" transform="translate(-165.9 -149.55)"/><path class="cls-8" d="M473.6,184l-3.4.3a1.27,1.27,0,0,1-1.4-1.4l.4-3.7a1.18,1.18,0,0,1,1.1-1.1l3.4-.3a1.27,1.27,0,0,1,1.4,1.4l-.4,3.7A1.11,1.11,0,0,1,473.6,184Z" transform="translate(-165.9 -149.55)"/><path class="cls-8" d="M461.5,197.3l-3.3.2a1.31,1.31,0,0,1-1.4-1.4l.4-3.6a1.28,1.28,0,0,1,1.2-1.1l3.3-.3a1.27,1.27,0,0,1,1.4,1.4l-.4,3.6A1.29,1.29,0,0,1,461.5,197.3Z" transform="translate(-165.9 -149.55)"/><path class="cls-8" d="M483.4,195.8l-3.6.3a1.31,1.31,0,0,1-1.4-1.4l.4-3.7a1.28,1.28,0,0,1,1.2-1.1l3.6-.3A1.27,1.27,0,0,1,485,191l-.4,3.8A1.57,1.57,0,0,1,483.4,195.8Z" transform="translate(-165.9 -149.55)"/><path class="cls-8" d="M472.3,196.6l-3.4.2a1.31,1.31,0,0,1-1.4-1.4l.4-3.7a1.28,1.28,0,0,1,1.2-1.1l3.4-.3a1.27,1.27,0,0,1,1.4,1.4l-.4,3.7A1.49,1.49,0,0,1,472.3,196.6Z" transform="translate(-165.9 -149.55)"/><path class="cls-8" d="M460.2,209.6l-3.2.2a1.24,1.24,0,0,1-1.3-1.4l.4-3.6a1.28,1.28,0,0,1,1.2-1.1l3.2-.2a1.19,1.19,0,0,1,1.3,1.4l-.4,3.6A1.2,1.2,0,0,1,460.2,209.6Z" transform="translate(-165.9 -149.55)"/><path class="cls-11" d="M482,208.4l-3.6.2a1.24,1.24,0,0,1-1.3-1.4l.4-3.7a1.28,1.28,0,0,1,1.2-1.1l3.6-.2a1.19,1.19,0,0,1,1.3,1.4l-.4,3.8A1.29,1.29,0,0,1,482,208.4Z" transform="translate(-165.9 -149.55)"/><path class="cls-11" d="M471,209l-3.4.2a1.24,1.24,0,0,1-1.3-1.4l.4-3.6a1.28,1.28,0,0,1,1.2-1.1l3.4-.2a1.19,1.19,0,0,1,1.3,1.4l-.4,3.7A1.29,1.29,0,0,1,471,209Z" transform="translate(-165.9 -149.55)"/><path class="cls-6" d="M518.7,217.2,675.3,201a4.65,4.65,0,0,1,5.1,5L667,358.4a7,7,0,0,1-7.3,6.4l-152.1-8.2a4.68,4.68,0,0,1-4.4-4.9l9.2-127.9A7.15,7.15,0,0,1,518.7,217.2Z" transform="translate(-165.9 -149.55)"/><path class="cls-9" d="M513,215.5l158.4-16.4a4.63,4.63,0,0,1,5.1,5.1L663,358.3a6.93,6.93,0,0,1-7.4,6.4l-153.9-8.3a4.64,4.64,0,0,1-4.4-5L506.6,222A7.33,7.33,0,0,1,513,215.5Z" transform="translate(-165.9 -149.55)"/><polygon class="cls-12" points="363.5 99.15 356.3 99.55 355.4 112.95 362.5 112.75 363.5 99.15"/><polygon class="cls-8" points="355.4 112.95 354.9 119.55 362 119.35 362.5 112.75 355.4 112.95"/><polygon class="cls-12" points="379 80.95 371.8 81.45 370.6 98.75 377.7 98.45 379 80.95"/><polygon class="cls-8" points="370.6 98.75 369.1 119.15 376.2 118.95 377.7 98.45 370.6 98.75"/><polygon class="cls-12" points="385.6 87.25 384.8 98.05 391.9 97.65 392.7 86.75 385.6 87.25"/><polygon class="cls-8" points="384.8 98.05 383.3 118.85 390.4 118.65 391.9 97.65 384.8 98.05"/><polygon class="cls-12" points="406.1 96.85 399 97.25 398.5 104.85 405.6 104.45 406.1 96.85"/><polygon class="cls-8" points="398.5 104.85 397.5 118.45 404.6 118.25 405.6 104.45 398.5 104.85"/><polygon class="cls-12" points="421.2 84.75 420.3 96.15 419.8 103.65 412.7 104.05 413.2 96.45 414.1 85.25 421.2 84.75"/><polygon class="cls-8" points="412.7 104.05 411.6 118.05 418.7 117.95 419.8 103.65 412.7 104.05"/><path class="cls-6" d="M644.2,226.1l-12.7,20.1-11.1-15.1a27.35,27.35,0,0,1,15.2-6.3A19.74,19.74,0,0,1,644.2,226.1Z" transform="translate(-165.9 -149.55)"/><path class="cls-10" d="M654.1,244.6l-22.6,1.6,12.7-20.1C651.2,228.9,655.3,235.9,654.1,244.6Z" transform="translate(-165.9 -149.55)"/><path class="cls-8" d="M654.1,244.6c0,.3-.1.6-.1.9-2.1,11.9-13.2,21.8-24.9,22.7l2.4-22Z" transform="translate(-165.9 -149.55)"/><path class="cls-13" d="M631.5,246.2l-2.4,22a12.1,12.1,0,0,1-1.9.1c-11.9,0-19.2-9.7-16.7-21.4a28.35,28.35,0,0,1,9.9-15.7Z" transform="translate(-165.9 -149.55)"/><path class="cls-13" d="M650.9,285.3,645.7,336,515,333.6l.2-3.9,28.3-19.5a3.6,3.6,0,0,1,4.3.1l10.6,7.8a3.7,3.7,0,0,0,5.2-.8l10.5-14a3.7,3.7,0,0,1,6,.1l9.3,12.9a3.72,3.72,0,0,0,5.3.8h0a3.76,3.76,0,0,1,4.4-.1l6.6,4.7a3.76,3.76,0,0,0,5.3-1l14.8-22.8a3.76,3.76,0,0,1,5.3-1l4.3,3.1a3.69,3.69,0,0,0,5.2-.8Z" transform="translate(-165.9 -149.55)"/><path class="cls-13" d="M555.8,301.4h-5.7a.91.91,0,0,0-.7.3l-1.3,1.3a1,1,0,0,1-1.4,0l-1-1.3a.91.91,0,0,0-.7-.3h-5.5a.77.77,0,0,1-.8-.9l.8-10.8a1.08,1.08,0,0,1,1-1l16.3-.6a.9.9,0,0,1,.9.9l-.9,11.3A1,1,0,0,1,555.8,301.4Z" transform="translate(-165.9 -149.55)"/><path class="cls-10" d="M609.2,306.8l-5.7-.1a.91.91,0,0,0-.7.3l-1.3,1.3a.9.9,0,0,1-1.4-.1l-1-1.3a.91.91,0,0,0-.7-.3l-5.4-.1c-.5,0-.8-.4-.8-1l.8-10.9a1.07,1.07,0,0,1,.9-1l16.3-.4a.92.92,0,0,1,.9,1l-.9,11.6A.94.94,0,0,1,609.2,306.8Z" transform="translate(-165.9 -149.55)"/><path class="cls-6" d="M335.3,595.3c-.4,1.3-1.3,6.5-2,11.3a41.74,41.74,0,0,1-22.1-2.7c.5-5,1-10.2,1-10.2C312.2,590.9,336.1,592.9,335.3,595.3Z" transform="translate(-165.9 -149.55)"/><path class="cls-10" d="M333.3,606.5c-.6,4.2-1.2,7.9-1.2,7.9s-2.7,6.3-9.5,6.3-12.3-5.7-12.2-8.1c.1-1.1.4-4.9.8-8.8A41.48,41.48,0,0,0,333.3,606.5Z" transform="translate(-165.9 -149.55)"/><path class="cls-6" d="M310.5,610.7a42.12,42.12,0,0,0,3.1,3.1c1.1,1,4.5-2.1,9.3-1.5s6.3,2.5,6.3,2.5a8.54,8.54,0,0,0,3.1-1.3,22.58,22.58,0,0,0,1.5,7.3c1.5,3.9,9.1,15.3,9.1,17.5s-.5,3.9-2.1,4.6-12.2.8-21.1,1-15.8.7-16.8-2.8,3.1-14.4,4.8-21.1S309.1,610.8,310.5,610.7Z" transform="translate(-165.9 -149.55)"/><path class="cls-14" d="M312,629.2s10.7-5.7,20.9,0" transform="translate(-165.9 -149.55)"/><path class="cls-14" d="M314,623.6a31.1,31.1,0,0,1,17,0" transform="translate(-165.9 -149.55)"/><path class="cls-6" d="M439.1,602.2c-11.4,3.9-23.2,1.5-23.1,1.6-.4-5.6-.9-11.5-.9-11.5,1.5-3.5,23-5.1,23.2-3.6C438.3,589.5,438.7,596.1,439.1,602.2Z" transform="translate(-165.9 -149.55)"/><path class="cls-10" d="M439.7,612.8s-1.5,4.7-8,7.1-14.8-4.1-14.9-6c-.1-.8-.4-5.4-.8-10.1,0-.1,11.7,2.3,23.1-1.6C439.4,607.7,439.7,612.8,439.7,612.8Z" transform="translate(-165.9 -149.55)"/><path class="cls-6" d="M416.6,612.5c-.7,0-1.2,1-1.6,7.3s-2.4,20.2,0,22.3,50.3,1.5,55.8,1.1,8.5-4,6.8-6.4S464.1,630,453.7,623s-12.9-8.5-14.1-10.2c0,0,.6-5.7-2.5-4.8s-5.2,8.3-9.2,9.3S423.4,612.1,416.6,612.5Z" transform="translate(-165.9 -149.55)"/><path class="cls-14" d="M456,623.2s-2.7-.8-8.8,5.7" transform="translate(-165.9 -149.55)"/><path class="cls-14" d="M449.4,618.9s-4.8-.2-10.3,6.9" transform="translate(-165.9 -149.55)"/><line class="cls-15" x1="149.1" y1="455.65" x2="149.7" y2="451.65"/><line class="cls-15" x1="156" y1="457.15" x2="156.6" y2="453.15"/><line class="cls-15" x1="163.6" y1="457.45" x2="164.3" y2="453.85"/><line class="cls-15" x1="254.6" y1="454.75" x2="254.3" y2="450.55"/><line class="cls-15" x1="262.9" y1="454.65" x2="262.6" y2="450.05"/><line class="cls-15" x1="270.4" y1="453.45" x2="270.1" y2="449.15"/><path class="cls-6" d="M308.3,371.4a124.2,124.2,0,0,0-2.8,24c-.3,13.7,10.4,56.6,14.3,71.1s3.1,16.8,2.5,19.6-6.6,25-8.6,48-9.2,41.5-8.4,48.6c1.1,9.6,5.2,12.4,6.9,13.5s15.7,5.6,25.2,3.4c0,0,10.1-6.4,12-15.4s.8-19.9,7.3-49.3,9.5-41.5,10.4-53.2c.5-7,.6-27,.7-42.3.1-10.4.1-18.7.2-19.5.3-2,5.2.3,7.8-6.1,1.1-2.9,1.7-8.4,1.8-14.3.2-7.5-.3-15.7-1.3-20.2C374.7,371,309.9,362.6,308.3,371.4Z" transform="translate(-165.9 -149.55)"/><path class="cls-6" d="M445.5,584.5c-1.7,4.2-4.8,9-7.6,10.1s-15.4,2.8-21.8,2.2c0,0-10.7-3.1-11.8-11.2s.8-17.1-2.8-35.3-6.7-50.4-7.6-59.9-20.5-37.8-29.7-54.9-19.1-48.4-10.9-55.7,37.5-10.6,46.2-4.7c0,0,10.1,24.6,20.2,54,9.3,27,11.2,36.1,12.5,43.9a15.52,15.52,0,0,0,.4,2.1c.4,2.4.9,8.6,1.6,16.6,1.6,20.3,3.5,51.8,4.3,59C439.6,560.7,447.2,580.3,445.5,584.5Z" transform="translate(-165.9 -149.55)"/><path class="cls-15" d="M362.4,421.4a126.22,126.22,0,0,1,20-5.4" transform="translate(-165.9 -149.55)"/><ellipse class="cls-16" cx="347.63" cy="488.44" rx="13.4" ry="13.2" transform="matrix(0.2, -0.98, 0.98, 0.2, -365.17, 584.49)"/><path class="cls-15" d="M434.2,491.6a13,13,0,0,1-10.2,4.9,13.3,13.3,0,0,1-.1-26.6,13,13,0,0,1,8.3,3" transform="translate(-165.9 -149.55)"/><path class="cls-15" d="M310.6,418.7a34.72,34.72,0,0,0,11.2-25.6,82.88,82.88,0,0,1-11.2-1.4" transform="translate(-165.9 -149.55)"/><path class="cls-15" d="M367.8,439.4c.1-10.4.1-18.7.2-19.5.3-2,5.2.3,7.8-6.1,1.1-2.9,1.7-8.4,1.8-14.3" transform="translate(-165.9 -149.55)"/><path class="cls-17" d="M397.3,256.9s8.2.4,21.4,26.8,17.9,35.9,17.9,35.9,8.7-2.1,22.9-4.4,34.2-5.2,34.2-5.2,5.4.1,7.7,7.8a12.16,12.16,0,0,1-2.4,11.4,4.5,4.5,0,0,1-1.9,1.4c-6.1,2.6-41.7,17.6-53.8,20.2-13.3,2.8-19.8,2.4-31.6-13.8s-21.1-28.8-25.4-35.3C382,294.9,378.9,257.9,397.3,256.9Z" transform="translate(-165.9 -149.55)"/><path class="cls-18" d="M419.8,346.2s-.7-5.3,9.6-5.3,15.6,7.7,13.1,9.9" transform="translate(-165.9 -149.55)"/><path class="cls-18" d="M436.6,319.5s-4.3,2-5.2,5" transform="translate(-165.9 -149.55)"/><path class="cls-10" d="M494.2,310.8s4.4-1.6,5.5-2.2,3.5-4.8,5.5-7.4,7.7-4.1,9.3-3.8a3.28,3.28,0,0,1,2.2,1.3s5-1.8,8.4-3.2,9.7-4.5,10.6-2c.5,1.5-3.4,3.7-6.1,5.2-3.3,1.9-5.5,3.3-5.5,3.3a4.19,4.19,0,0,1,2,2.9c.4,2.1,1.5,4.4-.5,7.6-.6.9,1.7,3.4-.1,5.7-3.1,3.7-10.6,5.6-14.6,6.8s-13.4,1.8-13.4,1.8-3-.7-4.3-7.2S494.2,310.8,494.2,310.8Z" transform="translate(-165.9 -149.55)"/><path class="cls-19" d="M516.7,298.7s.7,1.8,1.5,4.5,1.4,4.8-.7,4.9-4-3.1-4.8-4.7" transform="translate(-165.9 -149.55)"/><path class="cls-19" d="M514.1,305.7s2.3,4.6-3,8.6" transform="translate(-165.9 -149.55)"/><line class="cls-19" x1="358.3" y1="152.45" x2="352.7" y2="155.05"/><path class="cls-19" d="M515.8,307.5s-1,1.6,0,2.5,6.5-1.1,10.5-3.4" transform="translate(-165.9 -149.55)"/><path class="cls-19" d="M516.7,310.2a2.06,2.06,0,0,0-.9,2.7c.8,1.8,5.1,1.1,9.8-.4" transform="translate(-165.9 -149.55)"/><path class="cls-19" d="M517.6,314s-2.5.3-1.2,2.8c.8,1.5,5.6,1,6.6,1.4" transform="translate(-165.9 -149.55)"/><path class="cls-18" d="M488.4,311.7c-.8,1.4-1.8,4.1-1.1,8.9a13.89,13.89,0,0,0,6.2,10.3" transform="translate(-165.9 -149.55)"/><path class="cls-10" d="M364.9,220.3s-3.2,16.1-5,20.5,8,11.3,17.8,11.7,8.8-5.3,8.8-5.3l2.9-16C389.4,231.3,368.4,216.6,364.9,220.3Z" transform="translate(-165.9 -149.55)"/><path class="cls-20" d="M369.3,225.1c-1.4,12.2,7.4,18.1,17.2,22.7v-.6l1.6-8.5C380.8,236.3,374.4,231.1,369.3,225.1Z" transform="translate(-165.9 -149.55)"/><path class="cls-9" d="M322.9,252.6c2.2-6.5,10.6-10.4,17.4-9.8,7,.6,20.4.8,33.3,4.8,22,6.8,27.3,10.8,28.6,12,7.3,7,6.6,17.4,2.4,46.1-2.7,18.9-5,23.7-4.4,33s2.3,25.8,3.4,29.2-1.7,9.3-4.1,11.4-21.8,6.5-39.8,6.1-46.3-5.3-50.8-8.3-7.7-8.2-6.7-12.7A200.52,200.52,0,0,1,307,344c2.8-9.5,3-21.9,7.4-41.8C317.8,287.5,318.3,266.2,322.9,252.6Z" transform="translate(-165.9 -149.55)"/><g class="cls-21"><ellipse class="cls-13" cx="402.81" cy="228.98" rx="4.9" ry="2.4" transform="translate(-225.78 54.91) rotate(-26.58)"/><ellipse class="cls-13" cx="419.31" cy="240.2" rx="4.9" ry="2.4" transform="translate(-229.06 63.48) rotate(-26.58)"/><ellipse class="cls-13" cx="382.62" cy="239.1" rx="4.9" ry="2.4" transform="translate(-232.45 46.95) rotate(-26.58)"/><ellipse class="cls-13" cx="399.21" cy="250.28" rx="4.9" ry="2.4" transform="translate(-235.7 55.55) rotate(-26.58)"/><ellipse class="cls-13" cx="418.01" cy="259.38" rx="4.9" ry="2.4" transform="translate(-237.78 64.93) rotate(-26.58)"/><ellipse class="cls-13" cx="434.51" cy="270.6" rx="4.9" ry="2.4" transform="translate(-241.06 73.5) rotate(-26.58)"/><ellipse class="cls-13" cx="397.83" cy="269.5" rx="4.9" ry="2.4" transform="translate(-244.45 56.96) rotate(-26.58)"/><ellipse class="cls-13" cx="414.42" cy="280.68" rx="4.9" ry="2.4" transform="translate(-247.69 65.57) rotate(-26.58)"/><ellipse class="cls-13" cx="362.53" cy="249.18" rx="4.9" ry="2.4" transform="translate(-239.08 39.02) rotate(-26.58)"/><ellipse class="cls-13" cx="379.03" cy="260.4" rx="4.9" ry="2.4" transform="translate(-242.36 47.59) rotate(-26.58)"/><ellipse class="cls-13" cx="342.3" cy="259.21" rx="4.9" ry="2.4" transform="translate(-245.71 31.03) rotate(-26.58)"/><ellipse class="cls-13" cx="358.89" cy="270.39" rx="4.9" ry="2.4" transform="translate(-248.96 39.63) rotate(-26.58)"/><ellipse class="cls-13" cx="377.69" cy="279.49" rx="4.9" ry="2.4" transform="translate(-251.05 49.01) rotate(-26.58)"/><ellipse class="cls-13" cx="394.23" cy="290.81" rx="4.9" ry="2.4" transform="translate(-254.36 57.61) rotate(-26.58)"/><ellipse class="cls-13" cx="357.5" cy="289.62" rx="4.9" ry="2.4" transform="translate(-257.71 41.05) rotate(-26.58)"/><ellipse class="cls-13" cx="374.09" cy="300.8" rx="4.9" ry="2.4" transform="translate(-260.96 49.65) rotate(-26.58)"/><ellipse class="cls-13" cx="433.62" cy="290.58" rx="4.9" ry="2.4" transform="translate(-250.09 75.21) rotate(-26.58)"/><ellipse class="cls-13" cx="450.13" cy="301.8" rx="4.9" ry="2.4" transform="translate(-253.37 83.78) rotate(-26.58)"/><ellipse class="cls-13" cx="413.39" cy="300.61" rx="4.9" ry="2.4" transform="translate(-256.72 67.22) rotate(-26.58)"/><ellipse class="cls-13" cx="429.99" cy="311.79" rx="4.9" ry="2.4" transform="translate(-259.97 75.83) rotate(-26.58)"/><ellipse class="cls-13" cx="448.83" cy="320.98" rx="4.9" ry="2.4" transform="translate(-262.09 85.23) rotate(-26.58)"/><ellipse class="cls-13" cx="465.33" cy="332.2" rx="4.9" ry="2.4" transform="translate(-265.37 93.8) rotate(-26.58)"/><ellipse class="cls-13" cx="428.6" cy="331.01" rx="4.9" ry="2.4" transform="translate(-268.72 77.24) rotate(-26.58)"/><ellipse class="cls-13" cx="445.19" cy="342.19" rx="4.9" ry="2.4" transform="translate(-271.97 85.84) rotate(-26.58)"/><ellipse class="cls-13" cx="393.3" cy="310.69" rx="4.9" ry="2.4" transform="translate(-263.36 59.29) rotate(-26.58)"/><ellipse class="cls-13" cx="409.8" cy="321.91" rx="4.9" ry="2.4" transform="translate(-266.63 67.86) rotate(-26.58)"/><ellipse class="cls-13" cx="373.11" cy="320.81" rx="4.9" ry="2.4" transform="translate(-270.02 51.33) rotate(-26.58)"/><ellipse class="cls-13" cx="389.71" cy="331.99" rx="4.9" ry="2.4" transform="translate(-273.27 59.94) rotate(-26.58)"/><ellipse class="cls-13" cx="408.5" cy="341.09" rx="4.9" ry="2.4" transform="translate(-275.35 69.31) rotate(-26.58)"/><ellipse class="cls-13" cx="425.01" cy="352.32" rx="4.9" ry="2.4" transform="translate(-278.63 77.88) rotate(-26.58)"/><ellipse class="cls-13" cx="404.91" cy="362.39" rx="4.9" ry="2.4" transform="translate(-285.27 69.95) rotate(-26.58)"/><ellipse class="cls-13" cx="322" cy="269.39" rx="4.9" ry="2.4" transform="translate(-252.41 23.02) rotate(-26.58)"/><ellipse class="cls-13" cx="338.51" cy="280.62" rx="4.9" ry="2.4" transform="translate(-255.69 31.59) rotate(-26.58)"/><ellipse class="cls-13" cx="301.91" cy="279.47" rx="4.9" ry="2.4" transform="translate(-259.05 15.09) rotate(-26.58)"/><ellipse class="cls-13" cx="318.41" cy="290.7" rx="4.9" ry="2.4" transform="translate(-262.32 23.67) rotate(-26.58)"/><ellipse class="cls-13" cx="337.21" cy="299.8" rx="4.9" ry="2.4" transform="translate(-264.41 33.04) rotate(-26.58)"/><ellipse class="cls-13" cx="353.8" cy="310.98" rx="4.9" ry="2.4" transform="translate(-267.66 41.65) rotate(-26.58)"/><ellipse class="cls-13" cx="317.11" cy="309.88" rx="4.9" ry="2.4" transform="translate(-271.04 25.11) rotate(-26.58)"/><ellipse class="cls-13" cx="333.61" cy="321.1" rx="4.9" ry="2.4" transform="translate(-274.32 33.68) rotate(-26.58)"/><ellipse class="cls-13" cx="281.72" cy="289.6" rx="4.9" ry="2.4" transform="translate(-265.71 7.13) rotate(-26.58)"/><ellipse class="cls-13" cx="298.32" cy="300.77" rx="4.9" ry="2.4" transform="translate(-268.96 15.74) rotate(-26.58)"/><ellipse class="cls-13" cx="261.58" cy="299.59" rx="4.9" ry="2.4" transform="translate(-272.31 -0.82) rotate(-26.58)"/><ellipse class="cls-13" cx="278.13" cy="310.9" rx="4.9" ry="2.4" transform="translate(-275.62 7.78) rotate(-26.58)"/><ellipse class="cls-13" cx="296.93" cy="320" rx="4.9" ry="2.4" transform="translate(-277.71 17.15) rotate(-26.58)"/><ellipse class="cls-13" cx="313.52" cy="331.18" rx="4.9" ry="2.4" transform="translate(-280.96 25.76) rotate(-26.58)"/><ellipse class="cls-13" cx="276.79" cy="329.99" rx="4.9" ry="2.4" transform="translate(-284.31 9.19) rotate(-26.58)"/><ellipse class="cls-13" cx="293.29" cy="341.21" rx="4.9" ry="2.4" transform="translate(-287.59 17.76) rotate(-26.58)"/><ellipse class="cls-13" cx="332.73" cy="341.07" rx="4.9" ry="2.4" transform="translate(-283.35 35.4) rotate(-26.58)"/><ellipse class="cls-13" cx="384.62" cy="372.58" rx="4.9" ry="2.4" transform="translate(-291.97 61.95) rotate(-26.58)"/><ellipse class="cls-13" cx="347.88" cy="371.39" rx="4.9" ry="2.4" transform="translate(-295.32 45.39) rotate(-26.58)"/><ellipse class="cls-13" cx="364.43" cy="382.7" rx="4.9" ry="2.4" transform="translate(-298.63 53.99) rotate(-26.58)"/><ellipse class="cls-13" cx="312.5" cy="351.11" rx="4.9" ry="2.4" transform="translate(-289.98 27.41) rotate(-26.58)"/><ellipse class="cls-13" cx="329.09" cy="362.28" rx="4.9" ry="2.4" transform="translate(-293.23 36.01) rotate(-26.58)"/><ellipse class="cls-13" cx="292.4" cy="361.19" rx="4.9" ry="2.4" transform="translate(-296.62 19.48) rotate(-26.58)"/><ellipse class="cls-13" cx="308.9" cy="372.41" rx="4.9" ry="2.4" transform="translate(-299.9 28.05) rotate(-26.58)"/><ellipse class="cls-13" cx="327.7" cy="381.51" rx="4.9" ry="2.4" transform="translate(-301.98 37.42) rotate(-26.58)"/><ellipse class="cls-13" cx="344.29" cy="392.69" rx="4.9" ry="2.4" transform="translate(-305.23 46.03) rotate(-26.58)"/><ellipse class="cls-13" cx="307.6" cy="391.59" rx="4.9" ry="2.4" transform="translate(-308.62 29.5) rotate(-26.58)"/><ellipse class="cls-13" cx="324.11" cy="402.81" rx="4.9" ry="2.4" transform="translate(-311.89 38.07) rotate(-26.58)"/></g><path class="cls-22" d="M350.4,325.9a183.07,183.07,0,0,0,33.8,3.9,3.11,3.11,0,0,1,3,2.7,19.84,19.84,0,0,0,5.1,10.8,2.79,2.79,0,0,1,.8,2c.1,4.2.3,18.4-2.5,20.6-3.2,2.4-37.2,4.6-58.3-1.3a3.19,3.19,0,0,1-2.4-3c.1-4.1.3-12.7,1-18.1a3.47,3.47,0,0,1,1.9-2.5c3.3-1.5,10.9-5.5,13.6-13A3.57,3.57,0,0,1,350.4,325.9Z" transform="translate(-165.9 -149.55)"/><path class="cls-13" d="M358.6,238.4a1.57,1.57,0,0,1,2.5-.5c1.9,2,6,5,13.4,6.4,11.3,2.1,12.4.4,12.4.4s1.8.6,2,2.1a26.91,26.91,0,0,1-.8,7.2c-.6,1.9-9,2.1-15.7.7a30.38,30.38,0,0,1-15.7-8.1,2.3,2.3,0,0,1-.5-2.6C356.8,242.5,357.8,240.3,358.6,238.4Z" transform="translate(-165.9 -149.55)"/><path class="cls-10" d="M407.9,201.3a35.58,35.58,0,0,1-2,12.6c-2,5.2-5.3,19.7-11.8,24.4s-20.7,3.8-26.9-8.3-4.2-24.8-1-35,16.4-13.9,27.9-9.7S407.9,196.8,407.9,201.3Z" transform="translate(-165.9 -149.55)"/><path class="cls-6" d="M365.9,208.3a13.91,13.91,0,0,1,1.7,2.9c.9,2.1,2.8.9,3.5-2.9s2.3-6.5,3.5-6.3a7,7,0,0,0,7.9-3.7c2.5-4.6,3.6-3.9,3.6-3.9s2-4.8,7.2,2.1,8.5,12.3,14.7,11.2,11.7-11.2,7-20.9-19.5-12-30.5-9.1-16.7.5-23.3,6.1-5,11.5-5.4,18.1-3.8,10.1.7,16,3.3,11.4,5.8,14.7c0,0,2.7-8.7,2.4-15S365.9,208.3,365.9,208.3Z" transform="translate(-165.9 -149.55)"/><path class="cls-18" d="M395.6,213.8a9.78,9.78,0,0,1-9.6,9.5,9.38,9.38,0,0,1-9.3-9.7,9.84,9.84,0,0,1,9.8-9.9A9.5,9.5,0,0,1,395.6,213.8Z" transform="translate(-165.9 -149.55)"/><ellipse class="cls-23" cx="404.96" cy="217.95" rx="9" ry="6.3" transform="translate(-83.43 396.26) rotate(-73.76)"/><path class="cls-18" d="M399.1,215.9s-.1-2-3.6-.9" transform="translate(-165.9 -149.55)"/><line class="cls-18" x1="211.6" y1="59.95" x2="200" y2="57.85"/><path class="cls-10" d="M366.9,210.1s-.9-5.3-5.2-5.4-6.9,13.1,3.8,14.9" transform="translate(-165.9 -149.55)"/><path class="cls-6" d="M361,208.8a2.53,2.53,0,0,1,2.7,1,3.29,3.29,0,0,1,.4,1.7c0,.3-.1.5-.1.8s-.1.4-.1.6a3.75,3.75,0,0,0-.1,1,.84.84,0,0,0,.2.7,6.21,6.21,0,0,0,1.9,1.4,3.36,3.36,0,0,1-2.9-.3,2.37,2.37,0,0,1-.9-1.5,4.19,4.19,0,0,1,.1-1.6c.1-.2.1-.5.2-.7s.1-.3.1-.5a1.1,1.1,0,0,0,0-.8A2.85,2.85,0,0,0,361,208.8Z" transform="translate(-165.9 -149.55)"/><path class="cls-6" d="M397.7,214.3a11.38,11.38,0,0,0,.7,3.3,5.39,5.39,0,0,0,.7,1.3,4.47,4.47,0,0,1,.9,1.7,4.7,4.7,0,0,1-.8,3.9,4.36,4.36,0,0,1-1.4,1.3,2.9,2.9,0,0,1-1.8.5,5.35,5.35,0,0,0,1.9-2.6,4.3,4.3,0,0,0,.3-2.7,5.73,5.73,0,0,0-.7-1.3,6,6,0,0,1-.6-1.9A6.94,6.94,0,0,1,397.7,214.3Z" transform="translate(-165.9 -149.55)"/><path class="cls-18" d="M387.7,230.2a7.57,7.57,0,0,1-6.6-4.4" transform="translate(-165.9 -149.55)"/><path class="cls-6" d="M383.6,215.7h0a1.49,1.49,0,0,1-1.1-1.8l.4-1.5a1.49,1.49,0,0,1,1.8-1.1h0a1.49,1.49,0,0,1,1.1,1.8l-.4,1.5A1.49,1.49,0,0,1,383.6,215.7Z" transform="translate(-165.9 -149.55)"/><path class="cls-6" d="M399.5,219.8h0a1.49,1.49,0,0,1-1.1-1.8l.4-1.5a1.49,1.49,0,0,1,1.8-1.1h0a1.49,1.49,0,0,1,1.1,1.8l-.4,1.5A1.49,1.49,0,0,1,399.5,219.8Z" transform="translate(-165.9 -149.55)"/><path class="cls-6" d="M387.6,208.8c-1.1.2-1.6-1.3-3.2-1.2-2.5.1-3.9.6-4.1-.5-.1-.8,1.8-2.3,4.2-2.4C388,204.7,389.6,208.5,387.6,208.8Z" transform="translate(-165.9 -149.55)"/><path class="cls-6" d="M399.5,211.8c.7.6,1.7-.5,2.7.2,1.5.9,2,1.7,2.5,1s0-2.4-1.4-3.3C401,208.1,398,210.7,399.5,211.8Z" transform="translate(-165.9 -149.55)"/><path class="cls-10" d="M273.5,379a14.54,14.54,0,0,0-1.3,4.5c0,1.7,1.4,17.4,1,20.5s-1.4,9.2-2,10.1-4.2-1.9-4.3-11.3-3.3-22.3-.6-23.8S272.7,377.8,273.5,379Z" transform="translate(-165.9 -149.55)"/><path class="cls-6" d="M208,425.4l24-37.8a3.72,3.72,0,0,1,5.2-1.1l56.5,35.9a3.72,3.72,0,0,1,1.1,5.2l-24,37.8a3.72,3.72,0,0,1-5.2,1.1l-56.5-35.9A3.81,3.81,0,0,1,208,425.4Z" transform="translate(-165.9 -149.55)"/><path class="cls-12" d="M274.3,454.3l12-18.8a1.45,1.45,0,0,1,2.4-.1l1.9,2.5a1.5,1.5,0,0,1,.1,1.7l-10.8,17a1.29,1.29,0,0,1-1.5.6l-3.1-.6A1.6,1.6,0,0,1,274.3,454.3Z" transform="translate(-165.9 -149.55)"/><path class="cls-10" d="M270.8,378s-.6,17.4-.7,21.1.1,11-.8,14.5-2.4,12.3-5.1,12.9.2-10.8.2-13a52.85,52.85,0,0,0-1.2-7.5s-1,5.5-1.7,7.9-5.3,9.9-7.1,9.6.4-5.9,1.8-9.3c1.3-3.1,1.8-9.6,1.8-9.6a51.87,51.87,0,0,1-2.7,5.8c-1.2,2-5.3,8.2-7,7.9s1.1-6.6,2.8-9.5a12.11,12.11,0,0,0,1.8-5s-2.7,2.7-4.4,4-7.7,4.2-8.2,2.7,2.2-3.1,4.7-5.4,5.2-6.9,5.8-7.7-1.1-7.8,1.6-12.5,4.3-6.6,5-9.8S270.5,375.7,270.8,378Z" transform="translate(-165.9 -149.55)"/><path class="cls-17" d="M333.3,242.8s-11.4-1.1-25.1,16.1-27.2,31.6-31,38.4-12.2,32.3-16.4,52.4-4.6,23.7-4.5,25.9c.1,2,10.2,4.8,16.8,4.7a2.84,2.84,0,0,0,2.7-1.8c2.6-6.1,11.7-26.9,15.3-34.5,4.2-8.9,9.1-22.1,9.7-23s27.9-28.7,33-36,10-19.1,8.9-29.5C341.5,244.2,335.7,242.7,333.3,242.8Z" transform="translate(-165.9 -149.55)"/><path class="cls-14" d="M278.6,295s3.1-4.3,7-.4c4.1,4.1,2.3,13-3.4,18.6-4.7,4.6-11.4,2.7-10.8-1.6" transform="translate(-165.9 -149.55)"/><path class="cls-18" d="M257.7,370.8c2.7,1.3,10.8,4.9,18.7,3.9" transform="translate(-165.9 -149.55)"/><path class="cls-6" d="M519.5,399.2l16.8-55a3.66,3.66,0,0,1,3.5-2.5l99.4,2.8a2.52,2.52,0,0,1,2.4,3.2l-19.5,67.1a3.51,3.51,0,0,1-3.9,2.5l-96.5-14.9A2.45,2.45,0,0,1,519.5,399.2Z" transform="translate(-165.9 -149.55)"/><path class="cls-7" d="M518.6,402l-57.8,5.4,99.1,24.4a15,15,0,0,0,7.3,0L621,417.9Z" transform="translate(-165.9 -149.55)"/><path class="cls-6" d="M560,431.8l-99.1-24.4h0a4.17,4.17,0,0,0,3.1,4l93.4,24.8a22.24,22.24,0,0,0,12-.2l49-14.4a3.87,3.87,0,0,0,2.8-3.8h0l-53.8,13.9A14.32,14.32,0,0,1,560,431.8Z" transform="translate(-165.9 -149.55)"/><path class="cls-13" d="M584.8,353.9l-7,23.8a1.5,1.5,0,0,1-1.4,1l-39.3-3.4a1.35,1.35,0,0,1-1.2-1.7l6.6-21.8a1.38,1.38,0,0,1,1.3-1l39.7,1.4A1.38,1.38,0,0,1,584.8,353.9Z" transform="translate(-165.9 -149.55)"/><polygon class="cls-10" points="411.4 208.65 407 222.95 376.4 220.75 377.5 217.55 388.8 212.55 395.2 217.55 411.4 208.65"/><path class="cls-9" d="M554.4,387.4l-2.9,9a1.35,1.35,0,0,1-1.5.9l-18.9-2.5a1.29,1.29,0,0,1-1.1-1.7l2.5-8.4a1.5,1.5,0,0,1,1.4-1l19.3,2A1.24,1.24,0,0,1,554.4,387.4Z" transform="translate(-165.9 -149.55)"/><path class="cls-12" d="M584,390.4l-3.2,9.9a1.35,1.35,0,0,1-1.5.9l-18-2.4a1.35,1.35,0,0,1-1.1-1.8l3-9.3a1.3,1.3,0,0,1,1.4-.9l18.2,1.8A1.35,1.35,0,0,1,584,390.4Z" transform="translate(-165.9 -149.55)"/><path class="cls-10" d="M618,393.8l-3.4,11a1.35,1.35,0,0,1-1.5.9l-21.7-2.9a1.35,1.35,0,0,1-1.1-1.8l3.3-10.3a1.3,1.3,0,0,1,1.4-.9l21.7,2.2A1.39,1.39,0,0,1,618,393.8Z" transform="translate(-165.9 -149.55)"/><path class="cls-9" d="M606.3,358.7a6.85,6.85,0,0,1-6.8,5.1c-2.9-.2-4.4-2.7-3.6-5.5a6.86,6.86,0,0,1,6.3-4.7A4.07,4.07,0,0,1,606.3,358.7Z" transform="translate(-165.9 -149.55)"/><line class="cls-15" x1="447.5" y1="205.85" x2="462.1" y2="206.35"/><line class="cls-15" x1="424.7" y1="224.85" x2="456" y2="227.05"/><line class="cls-15" x1="445.8" y1="211.75" x2="460.4" y2="212.35"/><path class="cls-12" d="M691.8,211.9l-76,5.9a3.2,3.2,0,0,1-3.4-3.4l3.2-43.9a5.54,5.54,0,0,1,4.8-5.1l77.2-10.5a3.21,3.21,0,0,1,3.6,3.4l-4.3,48.6A5.65,5.65,0,0,1,691.8,211.9Z" transform="translate(-165.9 -149.55)"/><path class="cls-8" d="M689.3,210.3l-76,5.9a3.2,3.2,0,0,1-3.4-3.4l3.2-43.9a5.54,5.54,0,0,1,4.8-5.1l77.2-10.5a3.21,3.21,0,0,1,3.6,3.4l-4.3,48.6A5.47,5.47,0,0,1,689.3,210.3Z" transform="translate(-165.9 -149.55)"/><path class="cls-6" d="M638.7,180.9a6.7,6.7,0,0,1-5.7,6,4.28,4.28,0,0,1-4.8-4.8,6.6,6.6,0,0,1,5.6-6C636.8,175.7,638.9,177.9,638.7,180.9Z" transform="translate(-165.9 -149.55)"/><path class="cls-6" d="M637.2,200l-10.4,1a3.46,3.46,0,0,1-3.8-3.9h0a12,12,0,0,1,10.1-10.7h0c5.2-.6,9.2,3.4,8.7,8.9h0A5.31,5.31,0,0,1,637.2,200Z" transform="translate(-165.9 -149.55)"/><line class="cls-15" x1="485.1" y1="25.95" x2="517.5" y2="22.15"/><line class="cls-15" x1="484.3" y1="34.85" x2="516.7" y2="31.35"/><line class="cls-15" x1="483.6" y1="43.75" x2="503.1" y2="41.85"/><path class="cls-10" d="M301.5,187.7h38.4l3.9,2.5a1.88,1.88,0,0,0,2.9-1.6V161.5a5,5,0,0,0-5-5H301.5a5,5,0,0,0-5,5v21.2A5,5,0,0,0,301.5,187.7Z" transform="translate(-165.9 -149.55)"/><line class="cls-18" x1="168.4" y1="15.85" x2="142.8" y2="15.85"/><line class="cls-18" x1="168.4" y1="22.85" x2="142.8" y2="22.85"/><line class="cls-18" x1="168.4" y1="29.85" x2="153.7" y2="29.85"/></svg>