<svg xmlns="http://www.w3.org/2000/svg" viewBox="0 0 51.03 30.44"><defs><style>.cls-1{fill:#4abaeb;fill-rule:evenodd;}</style></defs><g id="Layer_2" data-name="Layer 2"><g id="Layer_1-2" data-name="Layer 1"><path class="cls-1" d="M25.52,0Q15.31,0,12.76,10.15c2.55-3.39,5.53-4.65,8.93-3.81,1.94.48,3.33,1.88,4.86,3.43,2.51,2.53,5.4,5.45,11.73,5.45q10.2,0,12.75-10.15-3.83,5.07-8.93,3.81C40.16,8.39,38.77,7,37.24,5.45,34.74,2.92,31.84,0,25.52,0ZM12.76,15.22Q2.55,15.22,0,25.36q3.83-5.07,8.93-3.8c1.94.48,3.33,1.88,4.87,3.43,2.5,2.52,5.39,5.45,11.72,5.45q10.2,0,12.76-10.15c-2.56,3.38-5.53,4.65-8.94,3.81-1.94-.49-3.32-1.89-4.86-3.44C22,18.14,19.08,15.22,12.76,15.22Z"/></g></g></svg>