<svg xmlns="http://www.w3.org/2000/svg" viewBox="0 0 161.57 161.57"><defs><style>.cls-1{fill:#fff;}.cls-2{fill:#0e84c7;fill-rule:evenodd;}</style></defs><g id="Layer_2" data-name="Layer 2"><g id="Layer_1-2" data-name="Layer 1"><rect class="cls-1" x="40.51" y="42.3" width="96.31" height="124.28" transform="translate(193.1 15.77) rotate(90)"/><path class="cls-2" d="M6.14,0H155.43a6.17,6.17,0,0,1,6.14,6.21V155.37a6.16,6.16,0,0,1-6.14,6.2H6.14A6.17,6.17,0,0,1,0,155.37V6.39A6.19,6.19,0,0,1,6,0ZM89.79,85.85V72.62H32.3V85.85H52.82v59H69.15v-59ZM96.3,143.2a33.35,33.35,0,0,0,9.33,3,66.53,66.53,0,0,0,11.36,1,53.26,53.26,0,0,0,11-1.12,28,28,0,0,0,9.22-3.66,18.67,18.67,0,0,0,6.14-6.65,20.38,20.38,0,0,0,2.27-10.11,21,21,0,0,0-1.29-7.7,17.32,17.32,0,0,0-3.81-5.83,26.55,26.55,0,0,0-6.14-4.66,78.38,78.38,0,0,0-7.8-3.85c-2.15-.87-4-1.67-5.71-2.54a28.52,28.52,0,0,1-4.36-2.49,10.16,10.16,0,0,1-2.7-2.73,5.79,5.79,0,0,1-1-3.23,5.44,5.44,0,0,1,.86-3,7.35,7.35,0,0,1,2.45-2.29,10.92,10.92,0,0,1,4.18-1.55,20.81,20.81,0,0,1,5-.56,34.27,34.27,0,0,1,4.3.31,30.59,30.59,0,0,1,4.55.93,32.87,32.87,0,0,1,4.42,1.61,26.62,26.62,0,0,1,4,2.18V75.42a44.26,44.26,0,0,0-8.11-2,69.17,69.17,0,0,0-10.07-.68A47.9,47.9,0,0,0,113.55,74a28,28,0,0,0-9.09,3.85A18.66,18.66,0,0,0,96,94.23a18.73,18.73,0,0,0,4.17,12.41,32.06,32.06,0,0,0,12.72,8.57l6.14,2.67a37,37,0,0,1,5,2.73,13.16,13.16,0,0,1,3.32,3,6.26,6.26,0,0,1,1.23,3.78,5.92,5.92,0,0,1-.74,2.92,7,7,0,0,1-2.33,2.3,12.23,12.23,0,0,1-3.87,1.55,22.94,22.94,0,0,1-5.35.56,30.28,30.28,0,0,1-10.44-1.86,29.94,29.94,0,0,1-9.58-5.53Z"/></g></g></svg>