<svg width="1784" height="1114" viewBox="0 0 1784 1114" fill="none" xmlns="http://www.w3.org/2000/svg">
<g clip-path="url(#clip0_4_114)">
<rect width="1784" height="1114" rx="6" fill="#334156"/>
<rect x="1175" y="-420" width="580" height="751" rx="6" fill="#00ADB5"/>
<rect x="1081" y="635" width="464" height="374" rx="6" fill="#00ADB5"/>
<rect x="830" y="103" width="788" height="417" rx="6" fill="#636C79" stroke="#C3C3C3" stroke-width="4" stroke-linecap="round"/>
<rect x="1106" y="241" width="415" height="226" rx="6" fill="#00ADB5" stroke="#00656C" stroke-width="4" stroke-linecap="round" stroke-dasharray="16 10"/>
<path d="M1299.93 349.369H1295.5C1295.33 348.422 1295.01 347.589 1294.55 346.869C1294.08 346.15 1293.52 345.539 1292.84 345.037C1292.17 344.535 1291.42 344.156 1290.59 343.901C1289.76 343.645 1288.89 343.517 1287.96 343.517C1286.28 343.517 1284.78 343.938 1283.45 344.781C1282.14 345.624 1281.1 346.86 1280.33 348.489C1279.57 350.117 1279.19 352.106 1279.19 354.455C1279.19 356.822 1279.57 358.82 1280.33 360.449C1281.1 362.078 1282.14 363.309 1283.47 364.142C1284.79 364.975 1286.29 365.392 1287.94 365.392C1288.86 365.392 1289.73 365.269 1290.56 365.023C1291.39 364.767 1292.14 364.393 1292.82 363.901C1293.49 363.408 1294.06 362.807 1294.52 362.097C1294.99 361.377 1295.32 360.553 1295.5 359.625L1299.93 359.639C1299.7 361.069 1299.24 362.385 1298.55 363.588C1297.88 364.781 1297.02 365.813 1295.95 366.685C1294.9 367.546 1293.7 368.214 1292.35 368.688C1290.99 369.161 1289.52 369.398 1287.91 369.398C1285.4 369.398 1283.15 368.801 1281.18 367.608C1279.21 366.405 1277.66 364.687 1276.52 362.452C1275.4 360.217 1274.83 357.551 1274.83 354.455C1274.83 351.348 1275.4 348.683 1276.54 346.457C1277.67 344.223 1279.23 342.509 1281.2 341.315C1283.17 340.113 1285.41 339.511 1287.91 339.511C1289.46 339.511 1290.9 339.734 1292.23 340.179C1293.58 340.615 1294.79 341.259 1295.86 342.111C1296.93 342.954 1297.81 343.986 1298.51 345.207C1299.21 346.42 1299.69 347.807 1299.93 349.369ZM1304.3 369V339.909H1314.67C1316.94 339.909 1318.81 340.321 1320.3 341.145C1321.79 341.969 1322.9 343.096 1323.64 344.526C1324.38 345.946 1324.74 347.546 1324.74 349.327C1324.74 351.116 1324.37 352.726 1323.62 354.156C1322.88 355.577 1321.77 356.704 1320.27 357.537C1318.78 358.361 1316.91 358.773 1314.66 358.773H1307.53V355.051H1314.26C1315.69 355.051 1316.85 354.805 1317.74 354.312C1318.63 353.811 1319.29 353.129 1319.7 352.267C1320.12 351.405 1320.33 350.425 1320.33 349.327C1320.33 348.228 1320.12 347.253 1319.7 346.401C1319.29 345.548 1318.63 344.881 1317.73 344.398C1316.84 343.915 1315.66 343.673 1314.2 343.673H1308.69V369H1304.3ZM1347.72 339.909H1352.12V359.043C1352.12 361.079 1351.64 362.883 1350.69 364.455C1349.73 366.017 1348.38 367.248 1346.65 368.148C1344.92 369.038 1342.89 369.483 1340.56 369.483C1338.24 369.483 1336.21 369.038 1334.48 368.148C1332.75 367.248 1331.4 366.017 1330.44 364.455C1329.49 362.883 1329.01 361.079 1329.01 359.043V339.909H1333.4V358.688C1333.4 360.004 1333.69 361.173 1334.27 362.196C1334.85 363.219 1335.68 364.024 1336.75 364.611C1337.82 365.188 1339.09 365.477 1340.56 365.477C1342.04 365.477 1343.31 365.188 1344.38 364.611C1345.46 364.024 1346.28 363.219 1346.85 362.196C1347.43 361.173 1347.72 360.004 1347.72 358.688V339.909Z" fill="white"/>
<rect x="1331" y="832" width="193" height="153" rx="6" fill="#636C79" stroke="#C3C3C3" stroke-width="4" stroke-linecap="round"/>
<path d="M1400.02 919.5H1396.53L1404.38 897.682H1408.19L1416.04 919.5H1412.54L1406.37 901.645H1406.2L1400.02 919.5ZM1400.61 910.956H1411.95V913.726H1400.61V910.956ZM1432.36 904.575C1432.15 903.928 1431.88 903.349 1431.53 902.838C1431.19 902.32 1430.78 901.879 1430.3 901.517C1429.83 901.148 1429.28 900.867 1428.67 900.675C1428.07 900.484 1427.4 900.388 1426.68 900.388C1425.45 900.388 1424.34 900.704 1423.36 901.336C1422.37 901.968 1421.59 902.895 1421.01 904.116C1420.44 905.331 1420.16 906.819 1420.16 908.58C1420.16 910.349 1420.45 911.844 1421.02 913.065C1421.6 914.287 1422.39 915.214 1423.39 915.846C1424.39 916.478 1425.53 916.794 1426.81 916.794C1427.99 916.794 1429.03 916.553 1429.91 916.07C1430.8 915.587 1431.48 914.905 1431.96 914.024C1432.45 913.136 1432.7 912.092 1432.7 910.892L1433.55 911.052H1427.31V908.335H1435.88V910.817C1435.88 912.65 1435.49 914.241 1434.71 915.59C1433.94 916.933 1432.87 917.969 1431.5 918.701C1430.13 919.433 1428.57 919.798 1426.81 919.798C1424.83 919.798 1423.1 919.344 1421.61 918.435C1420.12 917.526 1418.97 916.237 1418.14 914.567C1417.3 912.891 1416.89 910.903 1416.89 908.602C1416.89 906.862 1417.13 905.299 1417.61 903.914C1418.1 902.529 1418.77 901.354 1419.65 900.388C1420.53 899.415 1421.56 898.673 1422.75 898.161C1423.94 897.643 1425.25 897.384 1426.66 897.384C1427.84 897.384 1428.93 897.558 1429.95 897.906C1430.97 898.254 1431.88 898.747 1432.68 899.386C1433.48 900.026 1434.14 900.786 1434.67 901.666C1435.2 902.54 1435.55 903.509 1435.74 904.575H1432.36ZM1453.52 897.682H1456.83V912.032C1456.83 913.559 1456.47 914.912 1455.75 916.091C1455.03 917.263 1454.02 918.186 1452.72 918.861C1451.42 919.528 1449.9 919.862 1448.15 919.862C1446.41 919.862 1444.89 919.528 1443.59 918.861C1442.29 918.186 1441.29 917.263 1440.57 916.091C1439.85 914.912 1439.49 913.559 1439.49 912.032V897.682H1442.78V911.766C1442.78 912.753 1443 913.63 1443.43 914.397C1443.88 915.164 1444.5 915.768 1445.3 916.208C1446.1 916.641 1447.05 916.858 1448.15 916.858C1449.26 916.858 1450.22 916.641 1451.02 916.208C1451.83 915.768 1452.45 915.164 1452.87 914.397C1453.31 913.63 1453.52 912.753 1453.52 911.766V897.682Z" fill="white"/>
<rect x="1327" y="655" width="194" height="153" rx="6" fill="#636C79" stroke="#C3C3C3" stroke-width="4" stroke-linecap="round"/>
<path d="M1391.02 742.5H1387.53L1395.38 720.682H1399.18L1407.04 742.5H1403.54L1397.37 724.645H1397.2L1391.02 742.5ZM1391.61 733.956H1402.94V736.726H1391.61V733.956ZM1409.62 742.5V720.682H1412.91V739.666H1422.79V742.5H1409.62ZM1440.01 720.682H1443.31V735.032C1443.31 736.559 1442.95 737.912 1442.24 739.091C1441.52 740.263 1440.51 741.186 1439.21 741.861C1437.91 742.528 1436.39 742.862 1434.64 742.862C1432.9 742.862 1431.38 742.528 1430.08 741.861C1428.78 741.186 1427.77 740.263 1427.06 739.091C1426.34 737.912 1425.98 736.559 1425.98 735.032V720.682H1429.27V734.766C1429.27 735.753 1429.49 736.63 1429.92 737.397C1430.36 738.164 1430.98 738.768 1431.79 739.208C1432.59 739.641 1433.54 739.858 1434.64 739.858C1435.75 739.858 1436.7 739.641 1437.51 739.208C1438.32 738.768 1438.93 738.164 1439.36 737.397C1439.79 736.63 1440.01 735.753 1440.01 734.766V720.682ZM1459.54 730.131L1456.65 730.643C1456.53 730.273 1456.34 729.922 1456.07 729.588C1455.82 729.254 1455.47 728.981 1455.03 728.768C1454.59 728.555 1454.04 728.448 1453.38 728.448C1452.48 728.448 1451.72 728.651 1451.12 729.055C1450.52 729.453 1450.21 729.968 1450.21 730.6C1450.21 731.147 1450.42 731.587 1450.82 731.921C1451.23 732.255 1451.88 732.528 1452.78 732.741L1455.38 733.338C1456.89 733.686 1458.01 734.222 1458.75 734.947C1459.49 735.671 1459.86 736.612 1459.86 737.77C1459.86 738.75 1459.57 739.624 1459 740.391C1458.44 741.151 1457.66 741.747 1456.65 742.18C1455.65 742.614 1454.49 742.83 1453.16 742.83C1451.33 742.83 1449.84 742.44 1448.68 741.658C1447.52 740.87 1446.81 739.751 1446.55 738.303L1449.63 737.834C1449.82 738.636 1450.21 739.244 1450.81 739.656C1451.41 740.06 1452.18 740.263 1453.14 740.263C1454.19 740.263 1455.02 740.046 1455.65 739.613C1456.27 739.173 1456.58 738.636 1456.58 738.004C1456.58 737.493 1456.39 737.063 1456.01 736.715C1455.63 736.367 1455.05 736.104 1454.27 735.927L1451.5 735.32C1449.98 734.972 1448.85 734.418 1448.12 733.658C1447.39 732.898 1447.03 731.935 1447.03 730.771C1447.03 729.805 1447.3 728.96 1447.84 728.235C1448.38 727.511 1449.12 726.946 1450.08 726.541C1451.03 726.129 1452.12 725.923 1453.35 725.923C1455.11 725.923 1456.51 726.307 1457.52 727.074C1458.54 727.834 1459.21 728.853 1459.54 730.131Z" fill="white"/>
<rect x="1111" y="655" width="193" height="153" rx="6" fill="#636C79" stroke="#C3C3C3" stroke-width="4" stroke-linecap="round"/>
<path d="M1141.14 742.5V720.682H1148.92C1150.61 720.682 1152.01 720.973 1153.12 721.555C1154.25 722.138 1155.08 722.944 1155.64 723.974C1156.19 724.996 1156.47 726.179 1156.47 727.521C1156.47 728.857 1156.19 730.032 1155.63 731.048C1155.07 732.056 1154.24 732.841 1153.11 733.402C1152 733.963 1150.6 734.244 1148.91 734.244H1143.01V731.41H1148.61C1149.67 731.41 1150.54 731.257 1151.21 730.952C1151.88 730.646 1152.37 730.202 1152.69 729.62C1153 729.038 1153.16 728.338 1153.16 727.521C1153.16 726.697 1153 725.984 1152.68 725.38C1152.36 724.776 1151.87 724.315 1151.2 723.995C1150.53 723.668 1149.65 723.505 1148.56 723.505H1144.43V742.5H1141.14ZM1151.91 732.656L1157.3 742.5H1153.55L1148.27 732.656H1151.91ZM1166.5 742.83C1164.88 742.83 1163.5 742.486 1162.33 741.797C1161.17 741.101 1160.28 740.124 1159.65 738.867C1159.02 737.603 1158.71 736.122 1158.71 734.425C1158.71 732.749 1159.02 731.271 1159.65 729.993C1160.28 728.714 1161.16 727.717 1162.29 726.999C1163.42 726.282 1164.75 725.923 1166.27 725.923C1167.2 725.923 1168.09 726.076 1168.96 726.381C1169.82 726.687 1170.6 727.166 1171.29 727.82C1171.98 728.473 1172.52 729.322 1172.92 730.366C1173.32 731.403 1173.52 732.663 1173.52 734.148V735.277H1160.51V732.891H1170.4C1170.4 732.053 1170.23 731.31 1169.88 730.664C1169.54 730.011 1169.06 729.496 1168.45 729.119C1167.84 728.743 1167.12 728.555 1166.29 728.555C1165.4 728.555 1164.62 728.775 1163.95 729.215C1163.29 729.648 1162.78 730.217 1162.42 730.92C1162.06 731.616 1161.88 732.372 1161.88 733.189V735.053C1161.88 736.147 1162.08 737.077 1162.46 737.844C1162.85 738.612 1163.39 739.197 1164.09 739.602C1164.78 740 1165.6 740.199 1166.53 740.199C1167.13 740.199 1167.68 740.114 1168.18 739.943C1168.68 739.766 1169.11 739.503 1169.47 739.155C1169.83 738.807 1170.11 738.377 1170.3 737.866L1173.31 738.409C1173.07 739.297 1172.64 740.075 1172.01 740.742C1171.4 741.403 1170.62 741.918 1169.68 742.287C1168.75 742.649 1167.69 742.83 1166.5 742.83ZM1183.34 748.977C1182.04 748.977 1180.92 748.807 1179.99 748.466C1179.06 748.125 1178.3 747.674 1177.71 747.113C1177.12 746.552 1176.68 745.938 1176.39 745.27L1179.12 744.141C1179.32 744.453 1179.57 744.783 1179.89 745.131C1180.22 745.487 1180.66 745.788 1181.21 746.037C1181.77 746.286 1182.49 746.41 1183.37 746.41C1184.58 746.41 1185.58 746.115 1186.37 745.526C1187.16 744.943 1187.55 744.013 1187.55 742.734V739.517H1187.35C1187.16 739.865 1186.88 740.252 1186.52 740.678C1186.16 741.104 1185.67 741.474 1185.05 741.786C1184.42 742.099 1183.61 742.255 1182.61 742.255C1181.31 742.255 1180.15 741.953 1179.11 741.349C1178.08 740.739 1177.27 739.84 1176.66 738.654C1176.07 737.461 1175.77 735.994 1175.77 734.254C1175.77 732.514 1176.06 731.023 1176.65 729.78C1177.25 728.537 1178.07 727.585 1179.1 726.925C1180.14 726.257 1181.31 725.923 1182.63 725.923C1183.64 725.923 1184.46 726.094 1185.09 726.435C1185.71 726.768 1186.2 727.159 1186.55 727.607C1186.9 728.054 1187.18 728.448 1187.37 728.789H1187.6V726.136H1190.72V742.862C1190.72 744.268 1190.4 745.423 1189.74 746.325C1189.09 747.227 1188.21 747.894 1187.09 748.327C1185.98 748.761 1184.73 748.977 1183.34 748.977ZM1183.31 739.613C1184.23 739.613 1185 739.4 1185.63 738.974C1186.27 738.54 1186.75 737.923 1187.08 737.12C1187.42 736.31 1187.58 735.341 1187.58 734.212C1187.58 733.111 1187.42 732.141 1187.09 731.303C1186.77 730.465 1186.29 729.812 1185.65 729.343C1185.02 728.867 1184.24 728.629 1183.31 728.629C1182.35 728.629 1181.55 728.878 1180.91 729.375C1180.27 729.865 1179.79 730.533 1179.46 731.378C1179.14 732.223 1178.98 733.168 1178.98 734.212C1178.98 735.284 1179.15 736.225 1179.47 737.035C1179.8 737.844 1180.28 738.477 1180.92 738.931C1181.57 739.386 1182.37 739.613 1183.31 739.613ZM1194.43 742.5V726.136H1197.61V742.5H1194.43ZM1196.04 723.612C1195.48 723.612 1195.01 723.427 1194.61 723.058C1194.22 722.681 1194.02 722.234 1194.02 721.715C1194.02 721.19 1194.22 720.742 1194.61 720.373C1195.01 719.996 1195.48 719.808 1196.04 719.808C1196.59 719.808 1197.06 719.996 1197.45 720.373C1197.85 720.742 1198.05 721.19 1198.05 721.715C1198.05 722.234 1197.85 722.681 1197.45 723.058C1197.06 723.427 1196.59 723.612 1196.04 723.612ZM1213.59 730.131L1210.7 730.643C1210.58 730.273 1210.39 729.922 1210.13 729.588C1209.87 729.254 1209.52 728.981 1209.08 728.768C1208.64 728.555 1208.09 728.448 1207.43 728.448C1206.53 728.448 1205.78 728.651 1205.17 729.055C1204.57 729.453 1204.27 729.968 1204.27 730.6C1204.27 731.147 1204.47 731.587 1204.88 731.921C1205.28 732.255 1205.93 732.528 1206.84 732.741L1209.43 733.338C1210.94 733.686 1212.06 734.222 1212.8 734.947C1213.54 735.671 1213.91 736.612 1213.91 737.77C1213.91 738.75 1213.63 739.624 1213.06 740.391C1212.5 741.151 1211.71 741.747 1210.7 742.18C1209.7 742.614 1208.54 742.83 1207.22 742.83C1205.39 742.83 1203.89 742.44 1202.73 741.658C1201.58 740.87 1200.87 739.751 1200.6 738.303L1203.68 737.834C1203.87 738.636 1204.27 739.244 1204.86 739.656C1205.46 740.06 1206.24 740.263 1207.2 740.263C1208.24 740.263 1209.08 740.046 1209.7 739.613C1210.33 739.173 1210.64 738.636 1210.64 738.004C1210.64 737.493 1210.45 737.063 1210.06 736.715C1209.69 736.367 1209.11 736.104 1208.33 735.927L1205.56 735.32C1204.03 734.972 1202.9 734.418 1202.17 733.658C1201.44 732.898 1201.08 731.935 1201.08 730.771C1201.08 729.805 1201.35 728.96 1201.89 728.235C1202.43 727.511 1203.18 726.946 1204.13 726.541C1205.08 726.129 1206.17 725.923 1207.4 725.923C1209.17 725.923 1210.56 726.307 1211.58 727.074C1212.59 727.834 1213.26 728.853 1213.59 730.131ZM1224.48 726.136V728.693H1215.54V726.136H1224.48ZM1217.94 722.216H1221.12V737.695C1221.12 738.313 1221.22 738.778 1221.4 739.091C1221.59 739.396 1221.82 739.606 1222.12 739.719C1222.41 739.826 1222.74 739.879 1223.08 739.879C1223.34 739.879 1223.56 739.862 1223.76 739.826C1223.95 739.79 1224.1 739.762 1224.2 739.741L1224.78 742.372C1224.59 742.443 1224.33 742.514 1223.99 742.585C1223.65 742.663 1223.22 742.706 1222.71 742.713C1221.87 742.727 1221.09 742.578 1220.37 742.266C1219.64 741.953 1219.06 741.47 1218.61 740.817C1218.16 740.163 1217.94 739.343 1217.94 738.356V722.216ZM1227.43 742.5V726.136H1230.51V728.736H1230.68C1230.98 727.855 1231.51 727.163 1232.26 726.658C1233.02 726.147 1233.88 725.891 1234.84 725.891C1235.04 725.891 1235.27 725.898 1235.54 725.913C1235.82 725.927 1236.03 725.945 1236.19 725.966V729.013C1236.06 728.977 1235.84 728.938 1235.51 728.896C1235.18 728.846 1234.86 728.821 1234.53 728.821C1233.78 728.821 1233.1 728.981 1232.52 729.3C1231.93 729.613 1231.47 730.05 1231.13 730.611C1230.79 731.165 1230.62 731.797 1230.62 732.507V742.5H1227.43ZM1238.38 742.5V726.136H1241.56V742.5H1238.38ZM1239.99 723.612C1239.43 723.612 1238.96 723.427 1238.56 723.058C1238.17 722.681 1237.97 722.234 1237.97 721.715C1237.97 721.19 1238.17 720.742 1238.56 720.373C1238.96 719.996 1239.43 719.808 1239.99 719.808C1240.54 719.808 1241.01 719.996 1241.4 720.373C1241.8 720.742 1242 721.19 1242 721.715C1242 722.234 1241.8 722.681 1241.4 723.058C1241.01 723.427 1240.54 723.612 1239.99 723.612ZM1252.33 742.83C1250.72 742.83 1249.33 742.486 1248.17 741.797C1247.01 741.101 1246.11 740.124 1245.48 738.867C1244.86 737.603 1244.54 736.122 1244.54 734.425C1244.54 732.749 1244.86 731.271 1245.48 729.993C1246.11 728.714 1246.99 727.717 1248.12 726.999C1249.26 726.282 1250.59 725.923 1252.11 725.923C1253.03 725.923 1253.93 726.076 1254.79 726.381C1255.66 726.687 1256.44 727.166 1257.12 727.82C1257.81 728.473 1258.36 729.322 1258.75 730.366C1259.15 731.403 1259.35 732.663 1259.35 734.148V735.277H1246.34V732.891H1256.23C1256.23 732.053 1256.06 731.31 1255.72 730.664C1255.38 730.011 1254.9 729.496 1254.28 729.119C1253.67 728.743 1252.95 728.555 1252.13 728.555C1251.23 728.555 1250.45 728.775 1249.78 729.215C1249.12 729.648 1248.61 730.217 1248.25 730.92C1247.9 731.616 1247.72 732.372 1247.72 733.189V735.053C1247.72 736.147 1247.91 737.077 1248.29 737.844C1248.68 738.612 1249.23 739.197 1249.92 739.602C1250.62 740 1251.43 740.199 1252.36 740.199C1252.97 740.199 1253.52 740.114 1254.01 739.943C1254.51 739.766 1254.94 739.503 1255.3 739.155C1255.67 738.807 1255.94 738.377 1256.13 737.866L1259.15 738.409C1258.91 739.297 1258.47 740.075 1257.85 740.742C1257.23 741.403 1256.45 741.918 1255.52 742.287C1254.59 742.649 1253.52 742.83 1252.33 742.83ZM1274.58 730.131L1271.69 730.643C1271.57 730.273 1271.38 729.922 1271.12 729.588C1270.86 729.254 1270.51 728.981 1270.07 728.768C1269.63 728.555 1269.08 728.448 1268.42 728.448C1267.52 728.448 1266.77 728.651 1266.16 729.055C1265.56 729.453 1265.26 729.968 1265.26 730.6C1265.26 731.147 1265.46 731.587 1265.86 731.921C1266.27 732.255 1266.92 732.528 1267.82 732.741L1270.42 733.338C1271.93 733.686 1273.05 734.222 1273.79 734.947C1274.53 735.671 1274.9 736.612 1274.9 737.77C1274.9 738.75 1274.61 739.624 1274.04 740.391C1273.48 741.151 1272.7 741.747 1271.69 742.18C1270.69 742.614 1269.53 742.83 1268.21 742.83C1266.37 742.83 1264.88 742.44 1263.72 741.658C1262.56 740.87 1261.85 739.751 1261.59 738.303L1264.67 737.834C1264.86 738.636 1265.26 739.244 1265.85 739.656C1266.45 740.06 1267.23 740.263 1268.19 740.263C1269.23 740.263 1270.06 740.046 1270.69 739.613C1271.31 739.173 1271.63 738.636 1271.63 738.004C1271.63 737.493 1271.43 737.063 1271.05 736.715C1270.67 736.367 1270.1 736.104 1269.31 735.927L1266.54 735.32C1265.02 734.972 1263.89 734.418 1263.16 733.658C1262.43 732.898 1262.07 731.935 1262.07 730.771C1262.07 729.805 1262.34 728.96 1262.88 728.235C1263.42 727.511 1264.17 726.946 1265.12 726.541C1266.07 726.129 1267.16 725.923 1268.39 725.923C1270.16 725.923 1271.55 726.307 1272.56 727.074C1273.58 727.834 1274.25 728.853 1274.58 730.131Z" fill="white"/>
<rect x="56" y="76" width="386.743" height="687.543" rx="11" fill="#00ADB5" stroke="#20242F" stroke-width="4" stroke-linecap="round" stroke-dasharray="16 10"/>
<path d="M222.036 435H212.618V405.909H222.334C225.184 405.909 227.632 406.491 229.678 407.656C231.723 408.812 233.29 410.473 234.379 412.642C235.478 414.801 236.027 417.391 236.027 420.412C236.027 423.442 235.473 426.046 234.365 428.224C233.267 430.402 231.676 432.079 229.592 433.253C227.509 434.418 224.99 435 222.036 435ZM217.007 431.165H221.794C224.01 431.165 225.852 430.748 227.32 429.915C228.787 429.072 229.886 427.855 230.615 426.264C231.344 424.664 231.709 422.713 231.709 420.412C231.709 418.13 231.344 416.193 230.615 414.602C229.895 413.011 228.821 411.804 227.391 410.98C225.961 410.156 224.185 409.744 222.064 409.744H217.007V431.165ZM240.264 435V413.182H244.511V435H240.264ZM242.409 409.815C241.67 409.815 241.036 409.569 240.506 409.077C239.985 408.575 239.724 407.978 239.724 407.287C239.724 406.586 239.985 405.99 240.506 405.497C241.036 404.995 241.67 404.744 242.409 404.744C243.148 404.744 243.777 404.995 244.298 405.497C244.829 405.99 245.094 406.586 245.094 407.287C245.094 407.978 244.829 408.575 244.298 409.077C243.777 409.569 243.148 409.815 242.409 409.815ZM265.695 418.509L261.845 419.19C261.684 418.698 261.428 418.229 261.078 417.784C260.737 417.339 260.273 416.974 259.686 416.69C259.099 416.406 258.365 416.264 257.484 416.264C256.282 416.264 255.278 416.534 254.473 417.074C253.668 417.604 253.266 418.291 253.266 419.134C253.266 419.863 253.535 420.45 254.075 420.895C254.615 421.34 255.486 421.705 256.689 421.989L260.155 422.784C262.162 423.248 263.659 423.963 264.643 424.929C265.628 425.895 266.121 427.15 266.121 428.693C266.121 430 265.742 431.165 264.984 432.188C264.236 433.201 263.19 433.996 261.845 434.574C260.51 435.152 258.962 435.44 257.2 435.44C254.757 435.44 252.764 434.92 251.22 433.878C249.677 432.827 248.73 431.335 248.379 429.403L252.484 428.778C252.74 429.848 253.266 430.658 254.061 431.207C254.856 431.747 255.893 432.017 257.172 432.017C258.564 432.017 259.677 431.728 260.51 431.151C261.343 430.563 261.76 429.848 261.76 429.006C261.76 428.324 261.504 427.751 260.993 427.287C260.491 426.823 259.719 426.473 258.678 426.236L254.984 425.426C252.948 424.962 251.443 424.223 250.467 423.21C249.501 422.197 249.018 420.914 249.018 419.361C249.018 418.073 249.378 416.946 250.098 415.98C250.818 415.014 251.812 414.261 253.081 413.722C254.35 413.172 255.803 412.898 257.442 412.898C259.8 412.898 261.656 413.409 263.01 414.432C264.364 415.445 265.259 416.804 265.695 418.509ZM273.817 427.599L273.788 422.415H274.527L283.22 413.182H288.305L278.391 423.693H277.723L273.817 427.599ZM269.91 435V405.909H274.158V435H269.91ZM283.689 435L275.876 424.631L278.802 421.662L288.902 435H283.689Z" fill="white"/>
<path d="M874.561 171V149.182H878.638V152.733H878.908C879.362 151.53 880.106 150.593 881.138 149.92C882.17 149.239 883.406 148.898 884.845 148.898C886.303 148.898 887.525 149.239 888.51 149.92C889.504 150.602 890.238 151.54 890.712 152.733H890.939C891.46 151.568 892.288 150.64 893.425 149.949C894.561 149.248 895.915 148.898 897.487 148.898C899.466 148.898 901.081 149.518 902.331 150.759C903.59 151.999 904.22 153.869 904.22 156.369V171H899.973V156.767C899.973 155.29 899.571 154.22 898.766 153.557C897.961 152.894 896.999 152.562 895.882 152.562C894.499 152.562 893.425 152.989 892.658 153.841C891.891 154.684 891.507 155.768 891.507 157.094V171H887.274V156.497C887.274 155.313 886.905 154.362 886.166 153.642C885.428 152.922 884.466 152.562 883.283 152.562C882.478 152.562 881.734 152.776 881.053 153.202C880.38 153.618 879.836 154.201 879.419 154.949C879.012 155.697 878.808 156.563 878.808 157.548V171H874.561ZM918.436 171.44C916.286 171.44 914.435 170.981 912.882 170.062C911.338 169.134 910.145 167.832 909.303 166.156C908.469 164.471 908.053 162.496 908.053 160.233C908.053 157.998 908.469 156.028 909.303 154.324C910.145 152.619 911.32 151.289 912.825 150.332C914.34 149.376 916.111 148.898 918.138 148.898C919.369 148.898 920.562 149.101 921.717 149.509C922.873 149.916 923.91 150.555 924.828 151.426C925.747 152.297 926.471 153.429 927.001 154.821C927.532 156.204 927.797 157.884 927.797 159.864V161.369H910.453V158.188H923.635C923.635 157.07 923.408 156.08 922.953 155.219C922.499 154.348 921.859 153.661 921.035 153.159C920.221 152.657 919.265 152.406 918.166 152.406C916.973 152.406 915.931 152.7 915.041 153.287C914.16 153.865 913.479 154.622 912.996 155.56C912.522 156.488 912.285 157.496 912.285 158.585V161.071C912.285 162.529 912.541 163.77 913.053 164.793C913.573 165.815 914.298 166.597 915.226 167.136C916.154 167.667 917.238 167.932 918.479 167.932C919.284 167.932 920.017 167.818 920.68 167.591C921.343 167.354 921.916 167.004 922.399 166.54C922.882 166.076 923.251 165.503 923.507 164.821L927.527 165.545C927.205 166.729 926.627 167.766 925.794 168.656C924.97 169.537 923.933 170.223 922.683 170.716C921.443 171.199 920.027 171.44 918.436 171.44ZM931.629 171V149.182H935.706V152.733H935.976C936.43 151.53 937.174 150.593 938.206 149.92C939.238 149.239 940.474 148.898 941.913 148.898C943.372 148.898 944.593 149.239 945.578 149.92C946.572 150.602 947.306 151.54 947.78 152.733H948.007C948.528 151.568 949.356 150.64 950.493 149.949C951.629 149.248 952.983 148.898 954.555 148.898C956.534 148.898 958.149 149.518 959.399 150.759C960.659 151.999 961.288 153.869 961.288 156.369V171H957.041V156.767C957.041 155.29 956.639 154.22 955.834 153.557C955.029 152.894 954.068 152.562 952.95 152.562C951.568 152.562 950.493 152.989 949.726 153.841C948.959 154.684 948.575 155.768 948.575 157.094V171H944.342V156.497C944.342 155.313 943.973 154.362 943.234 153.642C942.496 152.922 941.534 152.562 940.351 152.562C939.546 152.562 938.802 152.776 938.121 153.202C937.448 153.618 936.904 154.201 936.487 154.949C936.08 155.697 935.876 156.563 935.876 157.548V171H931.629ZM975.291 171.44C973.246 171.44 971.461 170.972 969.936 170.034C968.411 169.097 967.228 167.785 966.385 166.099C965.542 164.414 965.121 162.444 965.121 160.19C965.121 157.927 965.542 155.948 966.385 154.253C967.228 152.558 968.411 151.241 969.936 150.304C971.461 149.366 973.246 148.898 975.291 148.898C977.337 148.898 979.122 149.366 980.646 150.304C982.171 151.241 983.355 152.558 984.197 154.253C985.04 155.948 985.462 157.927 985.462 160.19C985.462 162.444 985.04 164.414 984.197 166.099C983.355 167.785 982.171 169.097 980.646 170.034C979.122 170.972 977.337 171.44 975.291 171.44ZM975.305 167.875C976.631 167.875 977.73 167.525 978.601 166.824C979.472 166.123 980.116 165.19 980.533 164.026C980.959 162.861 981.172 161.578 981.172 160.176C981.172 158.784 980.959 157.506 980.533 156.341C980.116 155.167 979.472 154.224 978.601 153.514C977.73 152.804 976.631 152.449 975.305 152.449C973.97 152.449 972.862 152.804 971.981 153.514C971.11 154.224 970.462 155.167 970.035 156.341C969.619 157.506 969.41 158.784 969.41 160.176C969.41 161.578 969.619 162.861 970.035 164.026C970.462 165.19 971.11 166.123 971.981 166.824C972.862 167.525 973.97 167.875 975.305 167.875ZM989.322 171V149.182H993.427V152.648H993.655C994.052 151.473 994.753 150.55 995.757 149.878C996.77 149.196 997.916 148.855 999.194 148.855C999.46 148.855 999.772 148.865 1000.13 148.884C1000.5 148.902 1000.79 148.926 1001 148.955V153.017C1000.83 152.97 1000.52 152.918 1000.09 152.861C999.654 152.795 999.218 152.761 998.783 152.761C997.779 152.761 996.884 152.974 996.098 153.401C995.321 153.817 994.706 154.4 994.251 155.148C993.797 155.886 993.569 156.729 993.569 157.676V171H989.322ZM1007.14 179.182C1006.51 179.182 1005.93 179.13 1005.41 179.026C1004.89 178.931 1004.5 178.827 1004.24 178.713L1005.27 175.233C1006.04 175.441 1006.74 175.531 1007.34 175.503C1007.95 175.474 1008.48 175.247 1008.95 174.821C1009.42 174.395 1009.84 173.699 1010.2 172.733L1010.72 171.284L1002.74 149.182H1007.28L1012.81 166.114H1013.04L1018.56 149.182H1023.12L1014.13 173.912C1013.71 175.048 1013.18 176.009 1012.54 176.795C1011.9 177.591 1011.13 178.188 1010.24 178.585C1009.35 178.983 1008.32 179.182 1007.14 179.182Z" fill="#EEEEEE" fill-opacity="0.933333"/>
<path d="M241.371 76C241.371 80.4183 244.953 84 249.371 84C253.79 84 257.371 80.4183 257.371 76C257.371 71.5817 253.79 68 249.371 68C244.953 68 241.371 71.5817 241.371 76ZM579.484 57.7344C580.312 57.7344 580.984 57.0629 580.984 56.2344C580.984 55.406 580.312 54.7344 579.484 54.7344V57.7344ZM653.484 54.7344C652.655 54.7344 651.984 55.406 651.984 56.2344C651.984 57.0629 652.655 57.7344 653.484 57.7344V54.7344ZM827.061 312.561C827.646 311.975 827.646 311.025 827.061 310.439L817.515 300.893C816.929 300.308 815.979 300.308 815.393 300.893C814.807 301.479 814.807 302.429 815.393 303.015L823.879 311.5L815.393 319.985C814.807 320.571 814.807 321.521 815.393 322.107C815.979 322.692 816.929 322.692 817.515 322.107L827.061 312.561ZM249.371 76H250.871H249.371ZM269.137 57.7344H579.484V54.7344H269.137V57.7344ZM653.484 57.7344H758V54.7344H653.484V57.7344ZM780.5 80.2344V287.5H783.5V80.2344H780.5ZM806 313H826V310H806V313ZM780.5 287.5C780.5 301.583 791.917 313 806 313V310C793.574 310 783.5 299.926 783.5 287.5H780.5ZM758 57.7344C770.427 57.7344 780.5 67.808 780.5 80.2344H783.5C783.5 66.1512 772.083 54.7344 758 54.7344V57.7344ZM250.871 76C250.871 65.9122 259.049 57.7344 269.137 57.7344V54.7344C257.392 54.7344 247.871 64.2554 247.871 76H250.871Z" fill="#B3B3B3"/>
<path d="M598.141 65.4901C597.084 65.4901 596.141 65.2202 595.311 64.6805C594.487 64.135 593.84 63.3594 593.368 62.3538C592.902 61.3424 592.669 60.1293 592.669 58.7145C592.669 57.2998 592.905 56.0895 593.377 55.0839C593.854 54.0782 594.507 53.3083 595.337 52.7742C596.166 52.2401 597.107 51.9731 598.158 51.9731C598.97 51.9731 599.624 52.1094 600.118 52.3822C600.618 52.6492 601.005 52.9617 601.277 53.3197C601.556 53.6776 601.772 53.993 601.925 54.2657H602.078V47.7799H604.627V65.2344H602.138V63.1975H601.925C601.772 63.4759 601.55 63.7941 601.26 64.152C600.976 64.51 600.584 64.8225 600.084 65.0895C599.584 65.3566 598.936 65.4901 598.141 65.4901ZM598.703 63.3168C599.436 63.3168 600.056 63.1236 600.561 62.7373C601.073 62.3452 601.459 61.8026 601.72 61.1094C601.987 60.4163 602.121 59.6094 602.121 58.689C602.121 57.7799 601.99 56.9844 601.729 56.3026C601.468 55.6208 601.084 55.0895 600.578 54.7089C600.073 54.3282 599.448 54.1378 598.703 54.1378C597.936 54.1378 597.297 54.3367 596.786 54.7344C596.274 55.1322 595.888 55.6748 595.627 56.3623C595.371 57.0498 595.243 57.8253 595.243 58.689C595.243 59.564 595.374 60.3509 595.635 61.0498C595.897 61.7486 596.283 62.3026 596.794 62.7117C597.311 63.1151 597.948 63.3168 598.703 63.3168ZM611.617 65.5242C610.788 65.5242 610.038 65.3708 609.367 65.064C608.697 64.7515 608.166 64.2998 607.774 63.7089C607.387 63.118 607.194 62.3935 607.194 61.5356C607.194 60.7969 607.336 60.189 607.62 59.7117C607.904 59.2344 608.288 58.8566 608.771 58.5782C609.254 58.2998 609.794 58.0895 610.39 57.9475C610.987 57.8055 611.595 57.6975 612.214 57.6236C612.998 57.5327 613.634 57.4589 614.123 57.402C614.612 57.3395 614.967 57.2401 615.188 57.1038C615.41 56.9674 615.521 56.7458 615.521 56.439V56.3793C615.521 55.635 615.311 55.0583 614.89 54.6492C614.475 54.2401 613.856 54.0356 613.032 54.0356C612.174 54.0356 611.498 54.2259 611.004 54.6066C610.515 54.9816 610.177 55.3992 609.99 55.8594L607.595 55.314C607.879 54.5185 608.294 53.8765 608.839 53.3878C609.39 52.8935 610.024 52.5356 610.74 52.314C611.455 52.0867 612.208 51.9731 612.998 51.9731C613.521 51.9731 614.075 52.0356 614.66 52.1606C615.251 52.2799 615.802 52.5015 616.313 52.8253C616.83 53.1492 617.254 53.6123 617.583 54.2145C617.913 54.8111 618.078 55.5867 618.078 56.5413V65.2344H615.589V63.4447H615.487C615.322 63.7742 615.075 64.0981 614.745 64.4163C614.416 64.7344 613.992 64.9986 613.475 65.2089C612.958 65.4191 612.339 65.5242 611.617 65.5242ZM612.171 63.4788C612.876 63.4788 613.478 63.3395 613.978 63.0611C614.484 62.7827 614.867 62.4191 615.129 61.9702C615.396 61.5157 615.529 61.0299 615.529 60.5128V58.8253C615.438 58.9163 615.262 59.0015 615.001 59.081C614.745 59.1549 614.453 59.2202 614.123 59.277C613.794 59.3282 613.473 59.3765 613.16 59.4219C612.848 59.4617 612.586 59.4958 612.376 59.5242C611.882 59.5867 611.43 59.6918 611.021 59.8395C610.617 59.9873 610.294 60.2003 610.049 60.4788C609.811 60.7515 609.691 61.1151 609.691 61.5697C609.691 62.2003 609.924 62.6776 610.39 63.0015C610.856 63.3197 611.45 63.4788 612.171 63.4788ZM627.127 52.1435V54.189H619.976V52.1435H627.127ZM621.894 49.0072H624.442V61.3907C624.442 61.885 624.516 62.2572 624.664 62.5072C624.811 62.7515 625.002 62.9191 625.235 63.01C625.473 63.0952 625.732 63.1378 626.01 63.1378C626.215 63.1378 626.394 63.1236 626.547 63.0952C626.7 63.0668 626.82 63.0441 626.905 63.027L627.365 65.1322C627.218 65.189 627.007 65.2458 626.735 65.3026C626.462 65.3651 626.121 65.3992 625.712 65.4049C625.041 65.4163 624.416 65.2969 623.837 65.0469C623.257 64.7969 622.789 64.4106 622.431 63.8878C622.073 63.3651 621.894 62.7089 621.894 61.9191V49.0072ZM633.299 65.5242C632.47 65.5242 631.72 65.3708 631.049 65.064C630.379 64.7515 629.847 64.2998 629.455 63.7089C629.069 63.118 628.876 62.3935 628.876 61.5356C628.876 60.7969 629.018 60.189 629.302 59.7117C629.586 59.2344 629.97 58.8566 630.453 58.5782C630.936 58.2998 631.475 58.0895 632.072 57.9475C632.668 57.8055 633.276 57.6975 633.896 57.6236C634.68 57.5327 635.316 57.4589 635.805 57.402C636.293 57.3395 636.649 57.2401 636.87 57.1038C637.092 56.9674 637.203 56.7458 637.203 56.439V56.3793C637.203 55.635 636.992 55.0583 636.572 54.6492C636.157 54.2401 635.538 54.0356 634.714 54.0356C633.856 54.0356 633.18 54.2259 632.686 54.6066C632.197 54.9816 631.859 55.3992 631.671 55.8594L629.276 55.314C629.561 54.5185 629.975 53.8765 630.521 53.3878C631.072 52.8935 631.705 52.5356 632.421 52.314C633.137 52.0867 633.89 51.9731 634.68 51.9731C635.203 51.9731 635.757 52.0356 636.342 52.1606C636.933 52.2799 637.484 52.5015 637.995 52.8253C638.512 53.1492 638.936 53.6123 639.265 54.2145C639.595 54.8111 639.759 55.5867 639.759 56.5413V65.2344H637.271V63.4447H637.168C637.004 63.7742 636.757 64.0981 636.427 64.4163C636.097 64.7344 635.674 64.9986 635.157 65.2089C634.64 65.4191 634.021 65.5242 633.299 65.5242ZM633.853 63.4788C634.558 63.4788 635.16 63.3395 635.66 63.0611C636.166 62.7827 636.549 62.4191 636.811 61.9702C637.078 61.5157 637.211 61.0299 637.211 60.5128V58.8253C637.12 58.9163 636.944 59.0015 636.683 59.081C636.427 59.1549 636.134 59.2202 635.805 59.277C635.475 59.3282 635.154 59.3765 634.842 59.4219C634.529 59.4617 634.268 59.4958 634.058 59.5242C633.563 59.5867 633.112 59.6918 632.703 59.8395C632.299 59.9873 631.975 60.2003 631.731 60.4788C631.492 60.7515 631.373 61.1151 631.373 61.5697C631.373 62.2003 631.606 62.6776 632.072 63.0015C632.538 63.3197 633.132 63.4788 633.853 63.4788Z" fill="#EEEEEE" fill-opacity="0.933333"/>
<rect x="529" y="880" width="344" height="153" rx="6" fill="#00ADB5" stroke="#20242F" stroke-width="4" stroke-linecap="round" stroke-dasharray="16 10"/>
<path d="M600.764 972V942.909H611.133C613.397 942.909 615.272 943.321 616.758 944.145C618.245 944.969 619.358 946.096 620.096 947.526C620.835 948.946 621.204 950.546 621.204 952.327C621.204 954.116 620.83 955.726 620.082 957.156C619.344 958.577 618.226 959.704 616.73 960.537C615.243 961.361 613.373 961.773 611.119 961.773H603.988V958.051H610.721C612.151 958.051 613.311 957.805 614.201 957.312C615.092 956.811 615.745 956.129 616.162 955.267C616.578 954.405 616.787 953.425 616.787 952.327C616.787 951.228 616.578 950.253 616.162 949.401C615.745 948.548 615.087 947.881 614.187 947.398C613.297 946.915 612.123 946.673 610.665 946.673H605.153V972H600.764ZM634.259 972.44C632.109 972.44 630.258 971.981 628.705 971.062C627.161 970.134 625.968 968.832 625.125 967.156C624.292 965.471 623.875 963.496 623.875 961.233C623.875 958.998 624.292 957.028 625.125 955.324C625.968 953.619 627.143 952.289 628.648 951.332C630.163 950.376 631.934 949.898 633.961 949.898C635.192 949.898 636.385 950.101 637.54 950.509C638.696 950.916 639.732 951.555 640.651 952.426C641.57 953.297 642.294 954.429 642.824 955.821C643.355 957.204 643.62 958.884 643.62 960.864V962.369H626.276V959.188H639.458C639.458 958.07 639.231 957.08 638.776 956.219C638.321 955.348 637.682 954.661 636.858 954.159C636.044 953.657 635.088 953.406 633.989 953.406C632.796 953.406 631.754 953.7 630.864 954.287C629.983 954.865 629.302 955.622 628.819 956.56C628.345 957.488 628.108 958.496 628.108 959.585V962.071C628.108 963.529 628.364 964.77 628.875 965.793C629.396 966.815 630.121 967.597 631.049 968.136C631.977 968.667 633.061 968.932 634.302 968.932C635.107 968.932 635.84 968.818 636.503 968.591C637.166 968.354 637.739 968.004 638.222 967.54C638.705 967.076 639.074 966.503 639.33 965.821L643.35 966.545C643.028 967.729 642.45 968.766 641.617 969.656C640.793 970.537 639.756 971.223 638.506 971.716C637.266 972.199 635.85 972.44 634.259 972.44ZM647.452 972V950.182H651.557V953.648H651.785C652.182 952.473 652.883 951.55 653.887 950.878C654.9 950.196 656.046 949.855 657.324 949.855C657.589 949.855 657.902 949.865 658.262 949.884C658.631 949.902 658.92 949.926 659.128 949.955V954.017C658.958 953.97 658.655 953.918 658.219 953.861C657.784 953.795 657.348 953.761 656.912 953.761C655.909 953.761 655.014 953.974 654.228 954.401C653.451 954.817 652.836 955.4 652.381 956.148C651.927 956.886 651.699 957.729 651.699 958.676V972H647.452ZM661.924 972V950.182H666.171V972H661.924ZM664.069 946.815C663.33 946.815 662.695 946.569 662.165 946.077C661.644 945.575 661.384 944.978 661.384 944.287C661.384 943.586 661.644 942.99 662.165 942.497C662.695 941.995 663.33 941.744 664.069 941.744C664.807 941.744 665.437 941.995 665.958 942.497C666.488 942.99 666.753 943.586 666.753 944.287C666.753 944.978 666.488 945.575 665.958 946.077C665.437 946.569 664.807 946.815 664.069 946.815ZM671.005 980.182V950.182H675.152V953.719H675.507C675.754 953.264 676.109 952.739 676.573 952.142C677.037 951.545 677.681 951.025 678.505 950.58C679.329 950.125 680.418 949.898 681.772 949.898C683.533 949.898 685.105 950.343 686.488 951.233C687.87 952.123 688.954 953.406 689.74 955.082C690.536 956.759 690.934 958.776 690.934 961.134C690.934 963.491 690.541 965.513 689.755 967.199C688.969 968.875 687.889 970.168 686.516 971.077C685.143 971.976 683.576 972.426 681.814 972.426C680.489 972.426 679.404 972.204 678.561 971.759C677.728 971.313 677.075 970.793 676.601 970.196C676.128 969.599 675.763 969.069 675.507 968.605H675.252V980.182H671.005ZM675.167 961.091C675.167 962.625 675.389 963.97 675.834 965.125C676.279 966.28 676.923 967.185 677.766 967.838C678.609 968.482 679.641 968.804 680.863 968.804C682.132 968.804 683.192 968.468 684.044 967.795C684.897 967.114 685.541 966.19 685.976 965.026C686.421 963.861 686.644 962.549 686.644 961.091C686.644 959.652 686.426 958.359 685.99 957.213C685.564 956.067 684.92 955.163 684.059 954.5C683.206 953.837 682.141 953.506 680.863 953.506C679.632 953.506 678.59 953.823 677.738 954.457C676.895 955.092 676.256 955.977 675.82 957.114C675.384 958.25 675.167 959.576 675.167 961.091ZM699.059 959.045V972H694.812V942.909H699.002V953.733H699.272C699.784 952.559 700.565 951.626 701.616 950.935C702.667 950.243 704.04 949.898 705.735 949.898C707.232 949.898 708.538 950.205 709.656 950.821C710.783 951.437 711.654 952.355 712.27 953.577C712.895 954.789 713.207 956.304 713.207 958.122V972H708.96V958.634C708.96 957.033 708.548 955.793 707.724 954.912C706.9 954.022 705.754 953.577 704.287 953.577C703.283 953.577 702.383 953.79 701.588 954.216C700.802 954.642 700.181 955.267 699.727 956.091C699.282 956.905 699.059 957.89 699.059 959.045ZM727.398 972.44C725.248 972.44 723.397 971.981 721.844 971.062C720.301 970.134 719.107 968.832 718.265 967.156C717.431 965.471 717.015 963.496 717.015 961.233C717.015 958.998 717.431 957.028 718.265 955.324C719.107 953.619 720.282 952.289 721.787 951.332C723.302 950.376 725.073 949.898 727.1 949.898C728.331 949.898 729.524 950.101 730.679 950.509C731.835 950.916 732.872 951.555 733.79 952.426C734.709 953.297 735.433 954.429 735.963 955.821C736.494 957.204 736.759 958.884 736.759 960.864V962.369H719.415V959.188H732.597C732.597 958.07 732.37 957.08 731.915 956.219C731.461 955.348 730.821 954.661 729.997 954.159C729.183 953.657 728.227 953.406 727.128 953.406C725.935 953.406 724.893 953.7 724.003 954.287C723.122 954.865 722.441 955.622 721.958 956.56C721.484 957.488 721.247 958.496 721.247 959.585V962.071C721.247 963.529 721.503 964.77 722.015 965.793C722.535 966.815 723.26 967.597 724.188 968.136C725.116 968.667 726.2 968.932 727.441 968.932C728.246 968.932 728.979 968.818 729.642 968.591C730.305 968.354 730.878 968.004 731.361 967.54C731.844 967.076 732.213 966.503 732.469 965.821L736.489 966.545C736.167 967.729 735.589 968.766 734.756 969.656C733.932 970.537 732.895 971.223 731.645 971.716C730.405 972.199 728.989 972.44 727.398 972.44ZM740.591 972V950.182H744.696V953.648H744.924C745.321 952.473 746.022 951.55 747.026 950.878C748.039 950.196 749.185 949.855 750.463 949.855C750.729 949.855 751.041 949.865 751.401 949.884C751.77 949.902 752.059 949.926 752.267 949.955V954.017C752.097 953.97 751.794 953.918 751.358 953.861C750.923 953.795 750.487 953.761 750.051 953.761C749.048 953.761 748.153 953.974 747.367 954.401C746.59 954.817 745.975 955.4 745.52 956.148C745.066 956.886 744.838 957.729 744.838 958.676V972H740.591ZM761.217 972.483C759.834 972.483 758.584 972.227 757.467 971.716C756.349 971.195 755.464 970.442 754.811 969.457C754.167 968.473 753.845 967.265 753.845 965.835C753.845 964.604 754.081 963.591 754.555 962.795C755.028 962 755.668 961.37 756.473 960.906C757.278 960.442 758.177 960.092 759.171 959.855C760.166 959.618 761.179 959.438 762.211 959.315C763.518 959.164 764.579 959.041 765.393 958.946C766.207 958.842 766.799 958.676 767.169 958.449C767.538 958.222 767.723 957.852 767.723 957.341V957.241C767.723 956.001 767.372 955.04 766.671 954.358C765.98 953.676 764.948 953.335 763.575 953.335C762.145 953.335 761.018 953.652 760.194 954.287C759.38 954.912 758.816 955.608 758.504 956.375L754.512 955.466C754.986 954.14 755.677 953.07 756.586 952.256C757.505 951.432 758.561 950.835 759.754 950.466C760.947 950.087 762.202 949.898 763.518 949.898C764.389 949.898 765.313 950.002 766.288 950.21C767.273 950.409 768.191 950.778 769.044 951.318C769.905 951.858 770.611 952.63 771.16 953.634C771.709 954.628 771.984 955.92 771.984 957.511V972H767.836V969.017H767.666C767.391 969.566 766.979 970.106 766.43 970.636C765.881 971.167 765.175 971.607 764.313 971.957C763.452 972.308 762.42 972.483 761.217 972.483ZM762.14 969.074C763.314 969.074 764.318 968.842 765.152 968.378C765.994 967.914 766.634 967.308 767.069 966.56C767.514 965.802 767.737 964.992 767.737 964.131V961.318C767.585 961.47 767.292 961.612 766.856 961.744C766.43 961.867 765.942 961.976 765.393 962.071C764.844 962.156 764.309 962.237 763.788 962.312C763.267 962.379 762.831 962.436 762.481 962.483C761.657 962.587 760.904 962.762 760.223 963.009C759.55 963.255 759.01 963.61 758.603 964.074C758.206 964.528 758.007 965.134 758.007 965.892C758.007 966.943 758.395 967.739 759.171 968.278C759.948 968.809 760.938 969.074 762.14 969.074ZM781.008 942.909V972H776.761V942.909H781.008ZM802.191 955.509L798.342 956.19C798.181 955.698 797.925 955.229 797.575 954.784C797.234 954.339 796.77 953.974 796.183 953.69C795.596 953.406 794.862 953.264 793.981 953.264C792.778 953.264 791.775 953.534 790.97 954.074C790.165 954.604 789.762 955.291 789.762 956.134C789.762 956.863 790.032 957.45 790.572 957.895C791.112 958.34 791.983 958.705 793.186 958.989L796.651 959.784C798.659 960.248 800.155 960.963 801.14 961.929C802.125 962.895 802.617 964.15 802.617 965.693C802.617 967 802.239 968.165 801.481 969.188C800.733 970.201 799.687 970.996 798.342 971.574C797.007 972.152 795.458 972.44 793.697 972.44C791.254 972.44 789.26 971.92 787.717 970.878C786.173 969.827 785.226 968.335 784.876 966.403L788.981 965.778C789.237 966.848 789.762 967.658 790.558 968.207C791.353 968.747 792.39 969.017 793.669 969.017C795.061 969.017 796.173 968.728 797.007 968.151C797.84 967.563 798.257 966.848 798.257 966.006C798.257 965.324 798.001 964.751 797.49 964.287C796.988 963.823 796.216 963.473 795.174 963.236L791.481 962.426C789.445 961.962 787.939 961.223 786.964 960.21C785.998 959.197 785.515 957.914 785.515 956.361C785.515 955.073 785.875 953.946 786.595 952.98C787.314 952.014 788.309 951.261 789.578 950.722C790.847 950.172 792.3 949.898 793.938 949.898C796.296 949.898 798.152 950.409 799.507 951.432C800.861 952.445 801.756 953.804 802.191 955.509Z" fill="white"/>
<rect x="587" y="587" width="344" height="153" rx="6" fill="#00ADB5" stroke="#20242F" stroke-width="4" stroke-linecap="round" stroke-dasharray="16 10"/>
<path d="M727.939 679V649.909H732.186V660.719H732.442C732.688 660.264 733.043 659.739 733.507 659.142C733.972 658.545 734.615 658.025 735.439 657.58C736.263 657.125 737.352 656.898 738.706 656.898C740.468 656.898 742.04 657.343 743.422 658.233C744.805 659.123 745.889 660.406 746.675 662.082C747.471 663.759 747.868 665.776 747.868 668.134C747.868 670.491 747.475 672.513 746.689 674.199C745.903 675.875 744.824 677.168 743.451 678.077C742.078 678.976 740.51 679.426 738.749 679.426C737.423 679.426 736.339 679.204 735.496 678.759C734.663 678.313 734.009 677.793 733.536 677.196C733.062 676.599 732.698 676.069 732.442 675.605H732.087V679H727.939ZM732.101 668.091C732.101 669.625 732.324 670.97 732.769 672.125C733.214 673.28 733.858 674.185 734.701 674.838C735.543 675.482 736.576 675.804 737.797 675.804C739.066 675.804 740.127 675.468 740.979 674.795C741.831 674.114 742.475 673.19 742.911 672.026C743.356 670.861 743.579 669.549 743.579 668.091C743.579 666.652 743.361 665.359 742.925 664.213C742.499 663.067 741.855 662.163 740.993 661.5C740.141 660.837 739.076 660.506 737.797 660.506C736.566 660.506 735.525 660.823 734.672 661.457C733.829 662.092 733.19 662.977 732.755 664.114C732.319 665.25 732.101 666.576 732.101 668.091ZM765.578 669.952V657.182H769.84V679H765.664V675.222H765.436C764.935 676.386 764.13 677.357 763.022 678.134C761.923 678.901 760.555 679.284 758.917 679.284C757.515 679.284 756.275 678.976 755.195 678.361C754.125 677.736 753.282 676.812 752.667 675.591C752.06 674.369 751.757 672.859 751.757 671.06V657.182H756.005V670.548C756.005 672.035 756.417 673.219 757.24 674.099C758.064 674.98 759.134 675.42 760.451 675.42C761.246 675.42 762.037 675.222 762.823 674.824C763.618 674.426 764.276 673.825 764.797 673.02C765.328 672.215 765.588 671.192 765.578 669.952ZM791.016 662.509L787.167 663.19C787.006 662.698 786.75 662.229 786.399 661.784C786.059 661.339 785.595 660.974 785.007 660.69C784.42 660.406 783.686 660.264 782.806 660.264C781.603 660.264 780.599 660.534 779.794 661.074C778.989 661.604 778.587 662.291 778.587 663.134C778.587 663.863 778.857 664.45 779.397 664.895C779.936 665.34 780.808 665.705 782.01 665.989L785.476 666.784C787.484 667.248 788.98 667.963 789.965 668.929C790.95 669.895 791.442 671.15 791.442 672.693C791.442 674 791.063 675.165 790.306 676.188C789.558 677.201 788.511 677.996 787.167 678.574C785.831 679.152 784.283 679.44 782.522 679.44C780.078 679.44 778.085 678.92 776.542 677.878C774.998 676.827 774.051 675.335 773.701 673.403L777.806 672.778C778.061 673.848 778.587 674.658 779.382 675.207C780.178 675.747 781.215 676.017 782.493 676.017C783.885 676.017 784.998 675.728 785.831 675.151C786.665 674.563 787.081 673.848 787.081 673.006C787.081 672.324 786.826 671.751 786.314 671.287C785.812 670.823 785.041 670.473 783.999 670.236L780.306 669.426C778.27 668.962 776.764 668.223 775.789 667.21C774.823 666.197 774.34 664.914 774.34 663.361C774.34 662.073 774.7 660.946 775.419 659.98C776.139 659.014 777.133 658.261 778.402 657.722C779.671 657.172 781.125 656.898 782.763 656.898C785.121 656.898 786.977 657.409 788.331 658.432C789.685 659.445 790.58 660.804 791.016 662.509Z" fill="white"/>
<path d="M1098 354C1098 358.418 1101.58 362 1106 362C1110.42 362 1114 358.418 1114 354C1114 349.582 1110.42 346 1106 346C1101.58 346 1098 349.582 1098 354ZM757.939 584.061C758.525 584.646 759.475 584.646 760.061 584.061L769.607 574.515C770.192 573.929 770.192 572.979 769.607 572.393C769.021 571.808 768.071 571.808 767.485 572.393L759 580.879L750.515 572.393C749.929 571.808 748.979 571.808 748.393 572.393C747.808 572.979 747.808 573.929 748.393 574.515L757.939 584.061ZM1106 352.5H782V355.5H1106V352.5ZM757.5 377V583H760.5V377H757.5ZM782 352.5C768.469 352.5 757.5 363.469 757.5 377H760.5C760.5 365.126 770.126 355.5 782 355.5V352.5Z" fill="#EEEEEE" fill-opacity="0.933333"/>
<rect x="99.6477" y="875.486" width="343.771" height="157.562" rx="6" fill="#00ADB5" stroke="#20242F" stroke-width="4" stroke-linecap="round" stroke-dasharray="16 10"/>
<path d="M242.719 969.486V940.395H253.088C255.351 940.395 257.226 940.807 258.713 941.631C260.2 942.454 261.313 943.581 262.051 945.011C262.79 946.432 263.159 948.032 263.159 949.812C263.159 951.602 262.785 953.212 262.037 954.642C261.298 956.062 260.181 957.189 258.685 958.023C257.198 958.847 255.328 959.258 253.074 959.258H245.943V955.537H252.676C254.106 955.537 255.266 955.291 256.156 954.798C257.046 954.296 257.7 953.615 258.117 952.753C258.533 951.891 258.742 950.911 258.742 949.812C258.742 948.714 258.533 947.739 258.117 946.886C257.7 946.034 257.042 945.366 256.142 944.883C255.252 944.4 254.078 944.159 252.619 944.159H247.108V969.486H242.719ZM271.814 940.395V969.486H267.425V940.395H271.814ZM301.488 949.855H297.056C296.886 948.908 296.568 948.075 296.104 947.355C295.64 946.635 295.072 946.025 294.4 945.523C293.728 945.021 292.975 944.642 292.141 944.386C291.317 944.131 290.442 944.003 289.514 944.003C287.837 944.003 286.336 944.424 285.011 945.267C283.694 946.11 282.653 947.346 281.886 948.974C281.128 950.603 280.749 952.592 280.749 954.94C280.749 957.308 281.128 959.306 281.886 960.935C282.653 962.563 283.699 963.794 285.025 964.628C286.351 965.461 287.842 965.878 289.499 965.878C290.418 965.878 291.289 965.755 292.113 965.508C292.946 965.253 293.699 964.879 294.371 964.386C295.044 963.894 295.612 963.293 296.076 962.582C296.549 961.863 296.876 961.039 297.056 960.111L301.488 960.125C301.251 961.555 300.792 962.871 300.11 964.074C299.438 965.267 298.571 966.299 297.511 967.17C296.46 968.032 295.257 968.7 293.903 969.173C292.549 969.647 291.071 969.883 289.471 969.883C286.952 969.883 284.708 969.287 282.738 968.094C280.768 966.891 279.215 965.172 278.079 962.937C276.952 960.703 276.389 958.037 276.389 954.94C276.389 951.834 276.957 949.168 278.093 946.943C279.229 944.708 280.782 942.994 282.752 941.801C284.722 940.598 286.961 939.997 289.471 939.997C291.014 939.997 292.454 940.22 293.789 940.665C295.134 941.1 296.341 941.744 297.411 942.597C298.481 943.439 299.367 944.472 300.067 945.693C300.768 946.905 301.242 948.293 301.488 949.855Z" fill="white"/>
<path d="M751 740C751 744.418 754.582 748 759 748C763.418 748 767 744.418 767 740C767 735.582 763.418 732 759 732C754.582 732 751 735.582 751 740ZM270.473 872.546C271.058 873.132 272.008 873.132 272.594 872.546L282.14 863C282.726 862.415 282.726 861.465 282.14 860.879C281.554 860.293 280.604 860.293 280.018 860.879L271.533 869.364L263.048 860.879C262.462 860.293 261.512 860.293 260.927 860.879C260.341 861.465 260.341 862.415 260.927 863L270.473 872.546ZM757.5 740V814.147H760.5V740H757.5ZM735 836.647H295.533V839.647H735V836.647ZM270.033 862.147V871.486H273.033V862.147H270.033ZM295.533 836.647C281.45 836.647 270.033 848.064 270.033 862.147H273.033C273.033 849.721 283.107 839.647 295.533 839.647V836.647ZM757.5 814.147C757.5 826.574 747.426 836.647 735 836.647V839.647C749.083 839.647 760.5 828.231 760.5 814.147H757.5Z" fill="#B3B3B3"/>
<path d="M526.061 957.561C526.647 956.975 526.647 956.025 526.061 955.439L516.515 945.893C515.929 945.308 514.979 945.308 514.393 945.893C513.808 946.479 513.808 947.429 514.393 948.015L522.879 956.5L514.393 964.985C513.808 965.571 513.808 966.521 514.393 967.107C514.979 967.692 515.929 967.692 516.515 967.107L526.061 957.561ZM435.419 954.267C435.419 958.685 439.001 962.267 443.419 962.267C447.837 962.267 451.419 958.685 451.419 954.267C451.419 949.848 447.837 946.267 443.419 946.267C439.001 946.267 435.419 949.848 435.419 954.267ZM486.21 955.383H487.71H486.21ZM486.21 955.383H487.71H486.21ZM525 955H487.326V958H525V955ZM485.093 952.767H443.419V955.767H485.093V952.767ZM487.71 955.383C487.71 953.938 486.538 952.767 485.093 952.767V955.767C484.881 955.767 484.71 955.595 484.71 955.383H487.71ZM487.326 955C487.538 955 487.71 955.172 487.71 955.383H484.71C484.71 956.828 485.881 958 487.326 958V955Z" fill="#B3B3B3"/>
<rect x="1111" y="832" width="193" height="153" rx="6" fill="#636C79" stroke="#C3C3C3" stroke-width="4" stroke-linecap="round"/>
<path d="M1183.25 904.777H1179.93C1179.8 904.067 1179.56 903.442 1179.21 902.902C1178.86 902.362 1178.44 901.904 1177.93 901.528C1177.43 901.151 1176.87 900.867 1176.24 900.675C1175.62 900.484 1174.97 900.388 1174.27 900.388C1173.01 900.388 1171.89 900.704 1170.89 901.336C1169.91 901.968 1169.12 902.895 1168.55 904.116C1167.98 905.338 1167.7 906.83 1167.7 908.591C1167.7 910.366 1167.98 911.865 1168.55 913.087C1169.12 914.308 1169.91 915.232 1170.9 915.857C1171.9 916.482 1173.02 916.794 1174.26 916.794C1174.95 916.794 1175.6 916.702 1176.22 916.517C1176.84 916.325 1177.41 916.045 1177.91 915.675C1178.42 915.306 1178.84 914.855 1179.19 914.322C1179.55 913.783 1179.79 913.165 1179.93 912.469L1183.25 912.479C1183.07 913.552 1182.73 914.539 1182.22 915.441C1181.71 916.336 1181.06 917.11 1180.27 917.763C1179.48 918.41 1178.58 918.911 1177.56 919.266C1176.55 919.621 1175.44 919.798 1174.24 919.798C1172.35 919.798 1170.67 919.351 1169.19 918.456C1167.71 917.554 1166.55 916.265 1165.69 914.589C1164.85 912.913 1164.43 910.913 1164.43 908.591C1164.43 906.261 1164.85 904.262 1165.7 902.593C1166.56 900.917 1167.72 899.631 1169.2 898.737C1170.68 897.835 1172.36 897.384 1174.24 897.384C1175.4 897.384 1176.47 897.55 1177.48 897.884C1178.48 898.211 1179.39 898.694 1180.19 899.333C1181 899.965 1181.66 900.739 1182.18 901.656C1182.71 902.565 1183.07 903.605 1183.25 904.777ZM1191.13 919.862C1190.09 919.862 1189.15 919.67 1188.31 919.287C1187.48 918.896 1186.81 918.332 1186.32 917.593C1185.84 916.854 1185.6 915.949 1185.6 914.876C1185.6 913.953 1185.77 913.193 1186.13 912.597C1186.48 912 1186.96 911.528 1187.57 911.18C1188.17 910.832 1188.85 910.569 1189.59 910.391C1190.34 910.214 1191.1 910.079 1191.87 909.987C1192.85 909.873 1193.65 909.781 1194.26 909.71C1194.87 909.631 1195.31 909.507 1195.59 909.337C1195.87 909.166 1196.01 908.889 1196.01 908.506V908.431C1196.01 907.501 1195.74 906.78 1195.22 906.268C1194.7 905.757 1193.92 905.501 1192.89 905.501C1191.82 905.501 1190.98 905.739 1190.36 906.215C1189.75 906.684 1189.33 907.206 1189.09 907.781L1186.1 907.099C1186.45 906.105 1186.97 905.303 1187.65 904.692C1188.34 904.074 1189.13 903.626 1190.03 903.349C1190.92 903.065 1191.86 902.923 1192.85 902.923C1193.51 902.923 1194.2 903.001 1194.93 903.158C1195.67 903.307 1196.36 903.584 1197 903.989C1197.64 904.393 1198.17 904.972 1198.58 905.725C1199 906.471 1199.2 907.44 1199.2 908.634V919.5H1196.09V917.263H1195.96C1195.76 917.675 1195.45 918.08 1195.04 918.477C1194.62 918.875 1194.09 919.205 1193.45 919.468C1192.8 919.731 1192.03 919.862 1191.13 919.862ZM1191.82 917.305C1192.7 917.305 1193.45 917.131 1194.08 916.783C1194.71 916.435 1195.19 915.981 1195.51 915.42C1195.85 914.852 1196.02 914.244 1196.02 913.598V911.489C1195.9 911.602 1195.68 911.709 1195.36 911.808C1195.04 911.901 1194.67 911.982 1194.26 912.053C1193.85 912.117 1193.44 912.178 1193.05 912.234C1192.66 912.284 1192.34 912.327 1192.07 912.362C1191.46 912.44 1190.89 912.572 1190.38 912.756C1189.88 912.941 1189.47 913.207 1189.17 913.555C1188.87 913.896 1188.72 914.351 1188.72 914.919C1188.72 915.707 1189.01 916.304 1189.59 916.709C1190.17 917.107 1190.92 917.305 1191.82 917.305ZM1209.77 919.83C1208.18 919.83 1206.82 919.472 1205.68 918.754C1204.54 918.03 1203.67 917.032 1203.05 915.761C1202.44 914.489 1202.14 913.033 1202.14 911.393C1202.14 909.731 1202.45 908.264 1203.08 906.993C1203.7 905.714 1204.58 904.717 1205.72 903.999C1206.85 903.282 1208.19 902.923 1209.73 902.923C1210.98 902.923 1212.09 903.154 1213.06 903.616C1214.03 904.07 1214.82 904.71 1215.41 905.533C1216.02 906.357 1216.38 907.32 1216.49 908.42H1213.39C1213.22 907.653 1212.83 906.993 1212.22 906.439C1211.61 905.885 1210.8 905.608 1209.79 905.608C1208.9 905.608 1208.12 905.842 1207.45 906.311C1206.79 906.773 1206.28 907.433 1205.91 908.293C1205.54 909.145 1205.36 910.153 1205.36 911.318C1205.36 912.511 1205.54 913.541 1205.9 914.408C1206.26 915.274 1206.77 915.945 1207.43 916.421C1208.1 916.897 1208.89 917.135 1209.79 917.135C1210.39 917.135 1210.94 917.025 1211.43 916.805C1211.93 916.577 1212.34 916.254 1212.67 915.835C1213.02 915.416 1213.25 914.912 1213.39 914.322H1216.49C1216.38 915.381 1216.03 916.325 1215.46 917.156C1214.88 917.987 1214.11 918.641 1213.14 919.116C1212.18 919.592 1211.06 919.83 1209.77 919.83ZM1222.51 909.784V919.5H1219.33V897.682H1222.47V905.8H1222.67C1223.05 904.919 1223.64 904.219 1224.43 903.701C1225.22 903.183 1226.25 902.923 1227.52 902.923C1228.64 902.923 1229.62 903.154 1230.46 903.616C1231.3 904.077 1231.96 904.766 1232.42 905.683C1232.89 906.592 1233.12 907.728 1233.12 909.092V919.5H1229.94V909.475C1229.94 908.275 1229.63 907.344 1229.01 906.684C1228.39 906.016 1227.53 905.683 1226.43 905.683C1225.68 905.683 1225 905.842 1224.41 906.162C1223.82 906.482 1223.35 906.95 1223.01 907.568C1222.68 908.179 1222.51 908.918 1222.51 909.784ZM1243.85 919.83C1242.24 919.83 1240.85 919.486 1239.69 918.797C1238.53 918.101 1237.64 917.124 1237 915.867C1236.38 914.603 1236.07 913.122 1236.07 911.425C1236.07 909.749 1236.38 908.271 1237 906.993C1237.64 905.714 1238.52 904.717 1239.65 903.999C1240.78 903.282 1242.11 902.923 1243.63 902.923C1244.55 902.923 1245.45 903.076 1246.32 903.381C1247.18 903.687 1247.96 904.166 1248.65 904.82C1249.34 905.473 1249.88 906.322 1250.28 907.366C1250.68 908.403 1250.88 909.663 1250.88 911.148V912.277H1237.87V909.891H1247.75C1247.75 909.053 1247.58 908.31 1247.24 907.664C1246.9 907.011 1246.42 906.496 1245.8 906.119C1245.19 905.743 1244.48 905.555 1243.65 905.555C1242.76 905.555 1241.98 905.775 1241.31 906.215C1240.65 906.648 1240.14 907.217 1239.77 907.92C1239.42 908.616 1239.24 909.372 1239.24 910.189V912.053C1239.24 913.147 1239.43 914.077 1239.82 914.844C1240.21 915.612 1240.75 916.197 1241.45 916.602C1242.14 917 1242.96 917.199 1243.89 917.199C1244.49 917.199 1245.04 917.114 1245.54 916.943C1246.04 916.766 1246.46 916.503 1246.83 916.155C1247.19 915.807 1247.47 915.377 1247.66 914.866L1250.67 915.409C1250.43 916.297 1250 917.075 1249.37 917.742C1248.76 918.403 1247.98 918.918 1247.04 919.287C1246.11 919.649 1245.05 919.83 1243.85 919.83Z" fill="white"/>
<path d="M1305 467C1305 471.418 1308.58 475 1313 475C1317.42 475 1321 471.418 1321 467C1321 462.582 1317.42 459 1313 459C1308.58 459 1305 462.582 1305 467ZM1311.5 516.58C1311.5 517.409 1312.17 518.08 1313 518.08C1313.83 518.08 1314.5 517.409 1314.5 516.58H1311.5ZM1314.5 568.58C1314.5 567.752 1313.83 567.08 1313 567.08C1312.17 567.08 1311.5 567.752 1311.5 568.58H1314.5ZM1311.94 632.061C1312.53 632.646 1313.47 632.646 1314.06 632.061L1323.61 622.515C1324.19 621.929 1324.19 620.979 1323.61 620.393C1323.02 619.808 1322.07 619.808 1321.49 620.393L1313 628.879L1304.51 620.393C1303.93 619.808 1302.98 619.808 1302.39 620.393C1301.81 620.979 1301.81 621.929 1302.39 622.515L1311.94 632.061ZM1311.5 467V516.58H1314.5V467H1311.5ZM1311.5 568.58V631H1314.5V568.58H1311.5Z" fill="white"/>
<path d="M1278.93 551.844C1277.66 551.844 1276.57 551.557 1275.65 550.983C1274.75 550.404 1274.05 549.606 1273.56 548.589C1273.07 547.572 1272.83 546.407 1272.83 545.094C1272.83 543.765 1273.08 542.591 1273.58 541.574C1274.08 540.552 1274.78 539.753 1275.69 539.18C1276.6 538.606 1277.67 538.319 1278.9 538.319C1279.9 538.319 1280.78 538.503 1281.56 538.873C1282.34 539.236 1282.97 539.748 1283.44 540.407C1283.93 541.066 1284.21 541.836 1284.31 542.716H1281.83C1281.69 542.103 1281.38 541.574 1280.89 541.131C1280.4 540.688 1279.76 540.466 1278.94 540.466C1278.23 540.466 1277.61 540.654 1277.08 541.029C1276.55 541.398 1276.14 541.927 1275.84 542.614C1275.55 543.296 1275.4 544.103 1275.4 545.035C1275.4 545.989 1275.54 546.813 1275.83 547.506C1276.12 548.199 1276.53 548.736 1277.06 549.117C1277.59 549.498 1278.22 549.688 1278.94 549.688C1279.43 549.688 1279.86 549.6 1280.26 549.424C1280.65 549.242 1280.99 548.983 1281.25 548.648C1281.53 548.313 1281.72 547.91 1281.83 547.438H1284.31C1284.21 548.285 1283.94 549.04 1283.48 549.705C1283.02 550.37 1282.4 550.893 1281.63 551.273C1280.86 551.654 1279.96 551.844 1278.93 551.844ZM1292.09 551.844C1290.86 551.844 1289.79 551.563 1288.88 551.001C1287.96 550.438 1287.25 549.651 1286.74 548.64C1286.24 547.628 1285.99 546.447 1285.99 545.094C1285.99 543.736 1286.24 542.549 1286.74 541.532C1287.25 540.515 1287.96 539.725 1288.88 539.162C1289.79 538.6 1290.86 538.319 1292.09 538.319C1293.32 538.319 1294.39 538.6 1295.3 539.162C1296.22 539.725 1296.93 540.515 1297.43 541.532C1297.94 542.549 1298.19 543.736 1298.19 545.094C1298.19 546.447 1297.94 547.628 1297.43 548.64C1296.93 549.651 1296.22 550.438 1295.3 551.001C1294.39 551.563 1293.32 551.844 1292.09 551.844ZM1292.1 549.705C1292.89 549.705 1293.55 549.495 1294.07 549.074C1294.6 548.654 1294.98 548.094 1295.23 547.395C1295.49 546.697 1295.62 545.927 1295.62 545.086C1295.62 544.251 1295.49 543.483 1295.23 542.785C1294.98 542.08 1294.6 541.515 1294.07 541.089C1293.55 540.662 1292.89 540.449 1292.1 540.449C1291.3 540.449 1290.63 540.662 1290.1 541.089C1289.58 541.515 1289.19 542.08 1288.94 542.785C1288.69 543.483 1288.56 544.251 1288.56 545.086C1288.56 545.927 1288.69 546.697 1288.94 547.395C1289.19 548.094 1289.58 548.654 1290.1 549.074C1290.63 549.495 1291.3 549.705 1292.1 549.705ZM1303.13 543.807V551.58H1300.58V538.489H1303.03V540.62H1303.19C1303.49 539.927 1303.96 539.37 1304.6 538.949C1305.25 538.529 1306.07 538.319 1307.05 538.319C1307.94 538.319 1308.72 538.506 1309.39 538.881C1310.06 539.251 1310.58 539.802 1310.95 540.535C1311.32 541.268 1311.51 542.174 1311.51 543.253V551.58H1308.96V543.56C1308.96 542.611 1308.71 541.87 1308.22 541.336C1307.72 540.796 1307.04 540.526 1306.18 540.526C1305.59 540.526 1305.06 540.654 1304.6 540.91C1304.15 541.165 1303.79 541.54 1303.52 542.035C1303.26 542.523 1303.13 543.114 1303.13 543.807ZM1320.58 538.489V540.535H1313.43V538.489H1320.58ZM1315.34 535.353H1317.89V547.736C1317.89 548.231 1317.97 548.603 1318.11 548.853C1318.26 549.097 1318.45 549.265 1318.69 549.356C1318.92 549.441 1319.18 549.483 1319.46 549.483C1319.67 549.483 1319.84 549.469 1320 549.441C1320.15 549.412 1320.27 549.39 1320.36 549.373L1320.82 551.478C1320.67 551.535 1320.46 551.591 1320.19 551.648C1319.91 551.711 1319.57 551.745 1319.16 551.751C1318.49 551.762 1317.87 551.643 1317.29 551.393C1316.71 551.143 1316.24 550.756 1315.88 550.233C1315.52 549.711 1315.34 549.055 1315.34 548.265V535.353ZM1326.75 551.87C1325.92 551.87 1325.17 551.716 1324.5 551.41C1323.83 551.097 1323.3 550.645 1322.91 550.055C1322.52 549.464 1322.33 548.739 1322.33 547.881C1322.33 547.143 1322.47 546.535 1322.75 546.057C1323.04 545.58 1323.42 545.202 1323.9 544.924C1324.39 544.645 1324.93 544.435 1325.52 544.293C1326.12 544.151 1326.73 544.043 1327.35 543.969C1328.13 543.878 1328.77 543.805 1329.26 543.748C1329.74 543.685 1330.1 543.586 1330.32 543.449C1330.54 543.313 1330.65 543.091 1330.65 542.785V542.725C1330.65 541.981 1330.44 541.404 1330.02 540.995C1329.61 540.586 1328.99 540.381 1328.17 540.381C1327.31 540.381 1326.63 540.572 1326.14 540.952C1325.65 541.327 1325.31 541.745 1325.12 542.205L1322.73 541.66C1323.01 540.864 1323.43 540.222 1323.97 539.733C1324.52 539.239 1325.16 538.881 1325.87 538.66C1326.59 538.432 1327.34 538.319 1328.13 538.319C1328.65 538.319 1329.21 538.381 1329.79 538.506C1330.38 538.626 1330.93 538.847 1331.45 539.171C1331.96 539.495 1332.39 539.958 1332.72 540.56C1333.05 541.157 1333.21 541.932 1333.21 542.887V551.58H1330.72V549.79H1330.62C1330.45 550.12 1330.21 550.444 1329.88 550.762C1329.55 551.08 1329.13 551.344 1328.61 551.555C1328.09 551.765 1327.47 551.87 1326.75 551.87ZM1327.3 549.824C1328.01 549.824 1328.61 549.685 1329.11 549.407C1329.62 549.128 1330 548.765 1330.26 548.316C1330.53 547.861 1330.66 547.376 1330.66 546.858V545.171C1330.57 545.262 1330.4 545.347 1330.13 545.427C1329.88 545.501 1329.59 545.566 1329.26 545.623C1328.93 545.674 1328.61 545.722 1328.29 545.768C1327.98 545.807 1327.72 545.841 1327.51 545.87C1327.01 545.932 1326.56 546.037 1326.15 546.185C1325.75 546.333 1325.43 546.546 1325.18 546.824C1324.94 547.097 1324.82 547.461 1324.82 547.915C1324.82 548.546 1325.06 549.023 1325.52 549.347C1325.99 549.665 1326.58 549.824 1327.3 549.824ZM1336.15 551.58V538.489H1338.7V551.58H1336.15ZM1337.44 536.469C1336.99 536.469 1336.61 536.322 1336.29 536.026C1335.98 535.725 1335.82 535.367 1335.82 534.952C1335.82 534.532 1335.98 534.174 1336.29 533.878C1336.61 533.577 1336.99 533.427 1337.44 533.427C1337.88 533.427 1338.26 533.577 1338.57 533.878C1338.89 534.174 1339.05 534.532 1339.05 534.952C1339.05 535.367 1338.89 535.725 1338.57 536.026C1338.26 536.322 1337.88 536.469 1337.44 536.469ZM1344.22 543.807V551.58H1341.67V538.489H1344.12V540.62H1344.28C1344.58 539.927 1345.05 539.37 1345.69 538.949C1346.34 538.529 1347.16 538.319 1348.14 538.319C1349.03 538.319 1349.81 538.506 1350.48 538.881C1351.15 539.251 1351.67 539.802 1352.04 540.535C1352.41 541.268 1352.6 542.174 1352.6 543.253V551.58H1350.05V543.56C1350.05 542.611 1349.8 541.87 1349.31 541.336C1348.81 540.796 1348.13 540.526 1347.27 540.526C1346.68 540.526 1346.15 540.654 1345.69 540.91C1345.24 541.165 1344.88 541.54 1344.61 542.035C1344.35 542.523 1344.22 543.114 1344.22 543.807Z" fill="#EEEEEE"/>
</g>
<defs>
<clipPath id="clip0_4_114">
<rect width="1784" height="1114" rx="6" fill="white"/>
</clipPath>
</defs>
</svg>
